<?xml version="1.0" encoding="UTF-8"?>
<svg version="1.1" xmlns="http://www.w3.org/2000/svg" width="1024" height="1024">
<path d="M0 0 C14.78362337 13.89613887 23.5183614 33.83811314 26.90625 53.5859375 C28.6720161 59.75089674 32.58902824 62.50790914 37.8125 65.875 C51.13434452 74.77451419 63.93770236 86.05149913 68.8125 101.75 C69.00457031 102.36746094 69.19664062 102.98492187 69.39453125 103.62109375 C71.36499994 113.65759313 70.07134589 123.28354882 64.875 132 C62.90403675 134.627951 60.90077751 137.21423445 58.8125 139.75 C60.14705099 142.75823589 61.56292775 144.69507654 64.0078125 146.88671875 C64.6376001 147.45938477 65.2673877 148.03205078 65.91625977 148.62207031 C66.58326904 149.22116211 67.25027832 149.82025391 67.9375 150.4375 C80.25943032 161.74953187 93.59417989 175.46856454 95.00537109 193.16918945 C95.58570104 212.5750713 93.79571824 228.19510912 80.4921875 243.40234375 C73.9351669 250.23685582 66.78982021 256.44507504 57.8125 259.75 C57.96589844 260.27464844 58.11929688 260.79929687 58.27734375 261.33984375 C60.24084661 270.1827727 59.97818466 279.72939075 59.8125 288.75 C60.53920898 289.01530518 61.26591797 289.28061035 62.01464844 289.55395508 C66.98727104 291.67968615 70.69761751 294.27579314 73.8125 298.75 C74.82420002 303.35323511 74.86429055 307.75731322 74.65625 312.43334961 C74.56189308 314.57628364 74.5332516 316.71260716 74.515625 318.85742188 C74.31019366 329.07179979 74.31019366 329.07179979 72.43457031 331.62768555 C70.8125 332.75 70.8125 332.75 68.25 333.5 C65.47445551 334.57021507 65.47445551 334.57021507 64.71875 337.86328125 C63.83438534 341.65613832 63.29095345 345.31715216 62.875 349.1875 C59.45843548 378.28109678 59.45843548 378.28109678 51.8125 389.75 C51.54555504 392.10454219 51.54555504 392.10454219 51.6484375 394.71875 C51.66616211 395.70101563 51.68388672 396.68328125 51.70214844 397.6953125 C51.84120678 401.54464431 52.04538204 405.38730798 52.27124023 409.23242188 C54.81469764 455.39561357 43.39876186 499.74545328 12.47875977 534.81054688 C1.40139112 546.99802989 -10.97326439 556.51127925 -25.1875 564.75 C-25.92049316 565.18086914 -26.65348633 565.61173828 -27.40869141 566.05566406 C-60.24512272 585.27802467 -96.26391952 593.04544783 -134 593.1875 C-135.42371414 593.19716797 -135.42371414 593.19716797 -136.87619019 593.20703125 C-154.03269092 593.27825622 -170.59969536 591.35743949 -187.3125 587.4375 C-188.22443115 587.22512695 -189.1363623 587.01275391 -190.07592773 586.79394531 C-212.37680509 581.44064699 -233.55535006 572.56996294 -253.1875 560.75 C-253.85620117 560.35699707 -254.52490234 559.96399414 -255.21386719 559.55908203 C-265.04113941 553.77874481 -273.69160696 547.33856466 -282.1875 539.75 C-283.54157378 538.60405691 -284.89572786 537.45820867 -286.25 536.3125 C-294.40384117 529.1067799 -302.00148118 521.47578866 -308.46875 512.7109375 C-310.35628395 510.55743286 -311.42760473 509.53072713 -314.1875 508.75 C-317.20147413 509.35178854 -317.20147413 509.35178854 -320.375 510.5625 C-325.73729145 512.33995598 -330.55360109 513.51567871 -336.1875 513.75 C-336.95191406 513.78996094 -337.71632813 513.82992187 -338.50390625 513.87109375 C-358.60749229 514.41966672 -377.06555233 507.88152522 -391.73828125 494.15625 C-392.54652344 493.3621875 -393.35476563 492.568125 -394.1875 491.75 C-394.73825195 491.24146484 -395.28900391 490.73292969 -395.85644531 490.20898438 C-400.31542706 485.98417763 -403.41140577 481.64788953 -406.3125 476.25 C-406.95251953 475.07739624 -406.95251953 475.07739624 -407.60546875 473.88110352 C-414.19582932 461.45489804 -418.60036507 447.77057065 -418.5 433.625 C-418.49371582 432.39330078 -418.49371582 432.39330078 -418.48730469 431.13671875 C-418.15888385 413.10851114 -412.62210265 396.72562546 -401.1875 382.75 C-400.8575 381.76 -400.5275 380.77 -400.1875 379.75 C-400.87199219 379.51925781 -401.55648437 379.28851562 -402.26171875 379.05078125 C-405.85999072 377.45101547 -408.86557152 375.28398291 -412 372.9375 C-412.64727051 372.45611572 -413.29454102 371.97473145 -413.96142578 371.47875977 C-437.1319239 354.10505654 -451.62205997 337.79818667 -460.1875 309.75 C-460.45433594 308.89664062 -460.72117187 308.04328125 -460.99609375 307.1640625 C-465.9641913 287.63429972 -461.31909301 267.6636587 -451.546875 250.60546875 C-444.24181025 238.40363498 -434.63731064 230.0332141 -422.69140625 222.51171875 C-419.97907485 220.8287726 -419.97907485 220.8287726 -418.1875 217.75 C-419.26 217.688125 -420.3325 217.62625 -421.4375 217.5625 C-432.42249211 216.16016058 -442.66384645 210.47051355 -449.5 201.8125 C-455.84693443 192.63704044 -457.16454133 182.90766872 -455.5625 171.9375 C-453.92760365 164.41697677 -449.51558979 159.10380309 -444.90234375 153.140625 C-443.17469937 150.73215493 -441.64698261 148.23846806 -440.11499023 145.70263672 C-435.0470591 137.39553524 -428.57516391 128.44995978 -419.1875 124.75 C-418.1975 124.75 -417.2075 124.75 -416.1875 124.75 C-416.60196499 127.72033245 -417.01984064 130.35793504 -418.203125 133.125 C-420.11228804 138.21610144 -420.1857728 144.05900376 -418.2890625 149.171875 C-417.31560023 151.06356764 -416.25739115 152.91112459 -415.1875 154.75 C-415.1875 155.41 -415.1875 156.07 -415.1875 156.75 C-414.5275 156.75 -413.8675 156.75 -413.1875 156.75 C-413.1875 157.41 -413.1875 158.07 -413.1875 158.75 C-409.56486366 160.24167379 -405.90760342 161.52370552 -402.1875 162.75 C-401.46046875 161.02716797 -401.46046875 161.02716797 -400.71875 159.26953125 C-386.71867707 126.59562903 -362.10684751 97.61299675 -334.1875 75.75 C-333.39085937 75.06292969 -332.59421875 74.37585938 -331.7734375 73.66796875 C-317.89607449 61.74546648 -302.27650575 52.25636457 -285.1875 45.75 C-284.42663086 45.46012207 -283.66576172 45.17024414 -282.88183594 44.87158203 C-259.1289207 36.01532304 -234.96530676 34.95957257 -211.4765625 45.11328125 C-207.80879122 46.93845485 -204.85075324 49.01618 -201.8984375 51.84375 C-200.13750825 53.00553423 -200.13750825 53.00553423 -197.7421875 52.27734375 C-194.4166429 50.2891359 -193.02735873 48.06726147 -190.9375 44.8125 C-190.16394396 43.64071988 -189.38650452 42.47149542 -188.60546875 41.3046875 C-188.21020996 40.71397461 -187.81495117 40.12326172 -187.40771484 39.51464844 C-184.3147 35.04159696 -180.92755283 30.69563713 -177.1875 26.75 C-176.5275 26.75 -175.8675 26.75 -175.1875 26.75 C-175.1875 26.09 -175.1875 25.43 -175.1875 24.75 C-174.5275 24.75 -173.8675 24.75 -173.1875 24.75 C-173.1875 24.09 -173.1875 23.43 -173.1875 22.75 C-154.95973851 6.29348741 -130.9100408 -6.18315883 -107.1875 -12.25 C-106.49849609 -12.42869629 -105.80949219 -12.60739258 -105.09960938 -12.79150391 C-69.39221593 -21.78333387 -29.66288078 -25.25170883 0 0 Z " fill="#020202" transform="translate(669.1875,185.25)"/>
<path d="M0 0 C0.91652344 0.01160156 1.83304687 0.02320313 2.77734375 0.03515625 C3.69644531 0.04417969 4.61554688 0.05320312 5.5625 0.0625 C6.27277344 0.07410156 6.98304688 0.08570313 7.71484375 0.09765625 C8.70484375 3.06765625 8.70484375 3.06765625 9.71484375 6.09765625 C10.43671875 6.15953125 11.15859375 6.22140625 11.90234375 6.28515625 C15.65723176 7.36990168 17.21913459 9.1297859 19.71484375 12.09765625 C22.34003545 16.90434527 22.12177669 22.00525584 22.27734375 27.34765625 C22.33700778 29.16550511 22.40059187 30.98323104 22.46875 32.80078125 C22.49267822 33.60161133 22.51660645 34.40244141 22.54125977 35.22753906 C22.51528516 37.11100688 22.51528516 37.11100688 23.71484375 38.09765625 C23.82320828 39.53348626 23.90060542 40.97167645 23.96484375 42.41015625 C24.44219354 47.86446456 26.21626874 52.27990847 28.4609375 57.23828125 C29.73641116 60.14683801 30.75275074 63.07265684 31.71484375 66.09765625 C32.37484375 66.09765625 33.03484375 66.09765625 33.71484375 66.09765625 C34.14667969 66.84917969 34.57851563 67.60070312 35.0234375 68.375 C39.51638476 75.60729617 49.77609051 79.7109085 57.71484375 82.09765625 C69.38451008 84.71956588 80.71416088 85.63383465 92.65234375 85.53515625 C93.83065765 85.53059418 93.83065765 85.53059418 95.03277588 85.52593994 C106.66972872 85.45938898 117.62759623 84.93646668 128.71484375 81.09765625 C129.34422852 80.88334961 129.97361328 80.66904297 130.62207031 80.44824219 C139.19103287 77.44320019 146.11306464 73.30830661 152.71484375 67.09765625 C153.68357422 66.20820312 153.68357422 66.20820312 154.671875 65.30078125 C164.78595592 54.98838502 167.6016698 39.84063818 169.60546875 26.05078125 C169.84982666 24.43018799 169.84982666 24.43018799 170.09912109 22.77685547 C170.42253416 20.59920746 170.72546089 18.41840387 171.00634766 16.23486328 C172.11130913 8.7539269 172.11130913 8.7539269 174.7265625 5.91015625 C179.07025997 4.72912478 183.16950828 4.66388637 187.65234375 4.72265625 C188.97395508 4.70525391 188.97395508 4.70525391 190.32226562 4.6875 C195.5529267 4.71100859 199.1536165 5.25722149 203.71484375 8.09765625 C203.71484375 9.41765625 203.71484375 10.73765625 203.71484375 12.09765625 C204.37484375 12.09765625 205.03484375 12.09765625 205.71484375 12.09765625 C205.77542969 13.31324219 205.83601563 14.52882813 205.8984375 15.78125 C205.98282707 17.36589853 206.06747585 18.95053327 206.15234375 20.53515625 C206.19166016 21.33759766 206.23097656 22.14003906 206.27148438 22.96679688 C206.12027335 26.85005186 206.12027335 26.85005186 207.71484375 30.09765625 C209.08386644 35.40386828 210.00409914 40.6018039 209.71484375 46.09765625 C210.37484375 46.09765625 211.03484375 46.09765625 211.71484375 46.09765625 C211.89917969 46.7525 212.08351563 47.40734375 212.2734375 48.08203125 C216.48702088 61.34077362 224.44536345 70.60112373 236.71484375 77.09765625 C240.31941693 78.69804735 243.9419554 79.95804481 247.71484375 81.09765625 C248.59398437 81.38382813 249.473125 81.67 250.37890625 81.96484375 C258.01965399 84.3886459 265.3795941 85.25898492 273.3671875 85.3359375 C274.18498184 85.34400925 275.00277618 85.35208099 275.84535217 85.36039734 C277.5724175 85.3741654 279.2995092 85.38491975 281.02661133 85.39282227 C282.76106978 85.40427243 284.49549496 85.4246121 286.22973633 85.4543457 C296.77663423 85.63457432 306.17221459 84.99696469 316.33422852 82.05932617 C319.46007392 81.17012959 322.50231345 80.56579851 325.71484375 80.09765625 C328.36725737 93.59501912 326.72504272 107.85681822 325.33984375 121.41015625 C325.21383789 122.65547119 325.08783203 123.90078613 324.95800781 125.18383789 C324.32131647 131.02004284 323.60631424 136.53015399 321.71484375 142.09765625 C321.05484375 142.09765625 320.39484375 142.09765625 319.71484375 142.09765625 C319.77671875 143.67546875 319.77671875 143.67546875 319.83984375 145.28515625 C319.723365 148.83775798 319.24276307 150.94632266 317.71484375 154.09765625 C317.05484375 154.09765625 316.39484375 154.09765625 315.71484375 154.09765625 C315.71484375 155.41765625 315.71484375 156.73765625 315.71484375 158.09765625 C315.05484375 158.09765625 314.39484375 158.09765625 313.71484375 158.09765625 C313.61171875 158.81953125 313.50859375 159.54140625 313.40234375 160.28515625 C312.64778666 163.37198071 311.36242952 165.39561558 309.71484375 168.09765625 C309.00341287 170.08217396 308.32493039 172.07967737 307.71484375 174.09765625 C307.05484375 174.09765625 306.39484375 174.09765625 305.71484375 174.09765625 C305.71484375 175.41765625 305.71484375 176.73765625 305.71484375 178.09765625 C305.05484375 178.09765625 304.39484375 178.09765625 303.71484375 178.09765625 C303.62203125 178.93296875 303.62203125 178.93296875 303.52734375 179.78515625 C302.38467683 183.0373621 300.14782983 184.66467017 297.71484375 187.09765625 C296.91617498 188.37229934 296.14672786 189.66556822 295.40234375 190.97265625 C291.5900934 197.30265449 285.76294259 201.30732769 279.96484375 205.72265625 C276.66485952 208.24418266 274.28048064 210.82425746 271.71484375 214.09765625 C266.52565456 218.09765625 266.52565456 218.09765625 261.71484375 218.09765625 C261.71484375 218.75765625 261.71484375 219.41765625 261.71484375 220.09765625 C258.71484375 222.09765625 258.71484375 222.09765625 255.71484375 222.09765625 C255.71484375 222.75765625 255.71484375 223.41765625 255.71484375 224.09765625 C254.39484375 224.09765625 253.07484375 224.09765625 251.71484375 224.09765625 C251.71484375 224.75765625 251.71484375 225.41765625 251.71484375 226.09765625 C248.6267468 227.86228308 247.48172239 228.09765625 243.71484375 228.09765625 C243.71484375 228.75765625 243.71484375 229.41765625 243.71484375 230.09765625 C242.39484375 230.09765625 241.07484375 230.09765625 239.71484375 230.09765625 C239.71484375 230.75765625 239.71484375 231.41765625 239.71484375 232.09765625 C236.20707591 233.70120726 233.57129496 234.31802489 229.71484375 234.09765625 C229.71484375 234.75765625 229.71484375 235.41765625 229.71484375 236.09765625 C227.73484375 236.09765625 225.75484375 236.09765625 223.71484375 236.09765625 C223.71484375 236.75765625 223.71484375 237.41765625 223.71484375 238.09765625 C221.73484375 238.09765625 219.75484375 238.09765625 217.71484375 238.09765625 C217.71484375 238.75765625 217.71484375 239.41765625 217.71484375 240.09765625 C212.22809179 241.96548671 207.49291399 242.33349585 201.71484375 242.09765625 C201.71484375 242.75765625 201.71484375 243.41765625 201.71484375 244.09765625 C201.08835937 244.15824219 200.461875 244.21882812 199.81640625 244.28125 C198.99914062 244.36503906 198.181875 244.44882812 197.33984375 244.53515625 C196.52773438 244.61636719 195.715625 244.69757813 194.87890625 244.78125 C192.6721157 244.98855739 192.6721157 244.98855739 190.71484375 246.09765625 C175.07494498 247.73227793 159.27186976 247.32026428 143.58984375 246.66015625 C142.62288574 246.62100098 141.65592773 246.5818457 140.65966797 246.54150391 C139.32186279 246.47842041 139.32186279 246.47842041 137.95703125 246.4140625 C136.76376221 246.35907593 136.76376221 246.35907593 135.54638672 246.30297852 C133.71484375 246.09765625 133.71484375 246.09765625 132.71484375 245.09765625 C130.32936375 244.85088246 127.94474683 244.71417366 125.55078125 244.57421875 C122.71484375 244.09765625 122.71484375 244.09765625 119.34765625 242.65234375 C115.60100489 241.04893811 112.22143981 240.2930159 108.21484375 239.59765625 C102.95836311 238.68537449 98.57904786 237.27893898 93.71484375 235.09765625 C91.91298767 234.50194057 90.10115727 233.93481493 88.27734375 233.41015625 C87.41238281 233.15878906 86.54742187 232.90742187 85.65625 232.6484375 C85.01558594 232.46667969 84.37492188 232.28492188 83.71484375 232.09765625 C83.71484375 231.43765625 83.71484375 230.77765625 83.71484375 230.09765625 C82.75578125 229.94296875 82.75578125 229.94296875 81.77734375 229.78515625 C77.65007049 228.85862552 73.70841426 227.48104996 69.71484375 226.09765625 C69.71484375 225.43765625 69.71484375 224.77765625 69.71484375 224.09765625 C69.02003906 223.83726562 68.32523438 223.576875 67.609375 223.30859375 C51.54552492 216.58822462 37.20752883 205.04394159 24.71484375 193.09765625 C23.84859375 192.27265625 22.98234375 191.44765625 22.08984375 190.59765625 C19.18964568 187.54481617 16.4135662 184.39207614 13.6328125 181.23046875 C12.1569121 179.58924346 10.6063497 178.01494113 9.02734375 176.47265625 C6.21024312 173.57941776 3.51138065 170.74687183 1.71484375 167.09765625 C1.90715144 161.90534856 1.90715144 161.90534856 3.71484375 160.09765625 C4.2216779 155.53614891 4.4830975 151.47411089 2.21484375 147.41015625 C-1.44266032 145.48996661 -4.39243757 145.92984065 -8.28515625 147.09765625 C-10.92880704 148.97379552 -11.23756906 149.95489468 -12.28515625 153.09765625 C-12.94515625 153.09765625 -13.60515625 153.09765625 -14.28515625 153.09765625 C-14.55328125 153.69578125 -14.82140625 154.29390625 -15.09765625 154.91015625 C-16.295031 157.11584658 -17.32994609 158.53348812 -19.28515625 160.09765625 C-20.27515625 160.09765625 -21.26515625 160.09765625 -22.28515625 160.09765625 C-22.28515625 160.75765625 -22.28515625 161.41765625 -22.28515625 162.09765625 C-27.10462441 165.14670753 -30.5111049 166.52025111 -36.28515625 167.09765625 C-36.61515625 167.42765625 -36.94515625 167.75765625 -37.28515625 168.09765625 C-40.00379796 168.19878734 -42.69167334 168.23629412 -45.41015625 168.22265625 C-46.53164063 168.22845703 -46.53164063 168.22845703 -47.67578125 168.234375 C-52.31408463 168.22629433 -56.70997423 167.86220921 -61.28515625 167.09765625 C-61.61515625 166.10765625 -61.94515625 165.11765625 -62.28515625 164.09765625 C-64.12611323 163.5106103 -64.12611323 163.5106103 -66.33984375 163.28515625 C-71.83957974 162.22307823 -75.2139344 159.68775717 -79.41015625 156.09765625 C-80.45598877 155.22089233 -80.45598877 155.22089233 -81.52294922 154.32641602 C-86.77580786 149.80109499 -90.93221406 145.20683059 -94.28515625 139.09765625 C-94.82398438 138.15277344 -95.3628125 137.20789063 -95.91796875 136.234375 C-101.88957893 125.11333285 -103.79259883 114.4554115 -103.66015625 101.91015625 C-103.67175781 100.79962891 -103.68335938 99.68910156 -103.6953125 98.54492188 C-103.65348374 86.75618439 -100.48028215 79.31323164 -93.28515625 70.09765625 C-92.40537109 68.93363281 -92.40537109 68.93363281 -91.5078125 67.74609375 C-83.90129427 58.38669923 -73.42894982 52.01698559 -61.375 50.65625 C-50.77006064 50.18286053 -43.14596666 52.03808087 -34.28515625 58.09765625 C-26.91066568 64.90828022 -20.15397545 72.76928508 -16.28515625 82.09765625 C-16.00027344 82.76152344 -15.71539062 83.42539062 -15.421875 84.109375 C-15.14988281 84.74488281 -14.87789063 85.38039063 -14.59765625 86.03515625 C-13.58497685 88.92163254 -13.58497685 88.92163254 -12.28515625 90.09765625 C-10.6189851 90.13829457 -8.9512753 90.14037725 -7.28515625 90.09765625 C-0.61820116 74.7069195 1.89103848 60.5569759 1.83984375 43.91015625 C1.84371094 42.67201172 1.84757812 41.43386719 1.8515625 40.15820312 C1.89638864 24.66572025 1.89638864 24.66572025 -0.78515625 9.47265625 C-1.04296875 8.51101563 -1.30078125 7.549375 -1.56640625 6.55859375 C-2.10141204 4.72678046 -2.68168536 2.90806891 -3.28515625 1.09765625 C-2.28515625 0.09765625 -2.28515625 0.09765625 0 0 Z " fill="#FDFDFD" transform="translate(374.28515625,511.90234375)"/>
<path d="M0 0 C2.10347366 -0.00220003 4.20643164 -0.02050245 6.30981445 -0.03930664 C15.19731626 -0.07643888 23.77136728 0.64537632 32.53833008 2.18530273 C33.35954346 2.32605225 34.18075684 2.46680176 35.02685547 2.61181641 C51.50767832 5.61385827 73.35852634 10.82201801 83.53833008 25.18530273 C83.53833008 25.84530273 83.53833008 26.50530273 83.53833008 27.18530273 C84.19833008 27.18530273 84.85833008 27.18530273 85.53833008 27.18530273 C85.53833008 28.50530273 85.53833008 29.82530273 85.53833008 31.18530273 C86.19833008 31.18530273 86.85833008 31.18530273 87.53833008 31.18530273 C87.74329102 32.11213867 87.94825195 33.03897461 88.15942383 33.99389648 C88.42883789 35.19143555 88.69825195 36.38897461 88.97583008 37.62280273 C89.37608398 39.41524414 89.37608398 39.41524414 89.78442383 41.24389648 C90.23899755 44.05577134 90.23899755 44.05577134 91.53833008 45.18530273 C91.62688168 47.85156304 91.65357681 50.49177388 91.63598633 53.15795898 C91.63386391 54.35442299 91.63386391 54.35442299 91.63169861 55.57505798 C91.62608324 58.13267709 91.6135282 60.69020991 91.60083008 63.24780273 C91.59581705 64.97761918 91.59125381 66.707437 91.5871582 68.43725586 C91.57610883 72.68663826 91.55883394 76.93595585 91.53833008 81.18530273 C90.87833008 81.51530273 90.21833008 81.84530273 89.53833008 82.18530273 C89.41458008 83.19592773 89.29083008 84.20655273 89.16333008 85.24780273 C88.31321923 90.60350107 86.41024583 95.31338699 82.53833008 99.18530273 C81.89580658 101.25404308 81.89580658 101.25404308 81.53833008 103.18530273 C88.45316595 99.85593732 93.3414396 95.78281003 98.53833008 90.18530273 C100.51833008 88.20530273 100.51833008 88.20530273 102.53833008 86.18530273 C101.05333008 93.11530273 101.05333008 93.11530273 99.53833008 100.18530273 C98.87833008 100.18530273 98.21833008 100.18530273 97.53833008 100.18530273 C97.53833008 101.83530273 97.53833008 103.48530273 97.53833008 105.18530273 C96.54833008 105.18530273 95.55833008 105.18530273 94.53833008 105.18530273 C94.29211914 105.77182617 94.0459082 106.35834961 93.79223633 106.96264648 C92.34479643 109.5283577 90.75611907 110.89791312 88.47583008 112.74780273 C85.20248868 115.3681278 85.20248868 115.3681278 83.53833008 119.18530273 C99.15179023 116.95480843 112.24837537 107.86525988 122.22583008 95.99780273 C126.53636765 90.22989294 129.49818588 83.68141632 132.53833008 77.18530273 C133.19833008 77.18530273 133.85833008 77.18530273 134.53833008 77.18530273 C136.83481657 79.74676844 137.53833008 80.66497846 137.53833008 84.18530273 C138.19833008 84.18530273 138.85833008 84.18530273 139.53833008 84.18530273 C139.68270508 85.31967773 139.82708008 86.45405273 139.97583008 87.62280273 C140.15004486 90.99307474 140.15004486 90.99307474 141.53833008 92.18530273 C142.03187382 94.51625632 142.48450957 96.8423962 142.91333008 99.18530273 C144.02548625 105.05459027 145.56630451 110.55094396 147.53833008 116.18530273 C147.53833008 117.17530273 147.53833008 118.16530273 147.53833008 119.18530273 C148.31692383 119.21108398 149.09551758 119.23686523 149.89770508 119.26342773 C158.26296537 119.68747319 166.16805075 120.95436777 174.34399414 122.7253418 C178.34608058 123.58488264 182.17721405 124.25867986 186.26489258 124.52905273 C190.75754936 124.97826916 193.20182698 126.66396664 196.60083008 129.68530273 C197.54055664 130.49999023 198.4802832 131.31467773 199.44848633 132.15405273 C200.13813477 132.82436523 200.8277832 133.49467773 201.53833008 134.18530273 C201.53833008 134.51530273 201.53833008 134.84530273 201.53833008 135.18530273 C196.88907603 135.5096693 193.06137714 134.89669015 188.53833008 133.74780273 C182.13102209 132.16087645 176.02489339 131.67758402 169.46020508 131.39624023 C166.53833008 131.18530273 166.53833008 131.18530273 165.53833008 130.18530273 C163.03416073 129.97467167 160.54692927 129.80958196 158.03833008 129.68530273 C150.67346521 129.32043787 150.67346521 129.32043787 149.53833008 128.18530273 C145.47456425 127.65075853 141.37553022 127.41928785 137.28833008 127.12280273 C136.07733643 127.03409912 134.86634277 126.94539551 133.61865234 126.85400391 C125.90057576 126.3252713 118.21218239 125.99848882 110.47583008 125.99780273 C109.59701172 125.99707764 108.71819336 125.99635254 107.81274414 125.99560547 C103.53959721 125.92196718 103.53959721 125.92196718 99.53833008 127.18530273 C98.03861076 127.30194356 96.53441965 127.36396512 95.03051758 127.39624023 C94.1255957 127.42459961 93.22067383 127.45295898 92.28833008 127.48217773 C90.39528218 127.53361925 88.50202939 127.57807183 86.60864258 127.61499023 C80.57275673 127.81959653 76.09948855 128.84632699 70.53833008 131.18530273 C68.21045081 131.55480738 65.87787863 131.8988274 63.53833008 132.18530273 C63.20833008 132.51530273 62.87833008 132.84530273 62.53833008 133.18530273 C60.87215893 133.22594106 59.20444913 133.22802374 57.53833008 133.18530273 C57.53833008 133.84530273 57.53833008 134.50530273 57.53833008 135.18530273 C56.21833008 135.18530273 54.89833008 135.18530273 53.53833008 135.18530273 C53.53833008 135.84530273 53.53833008 136.50530273 53.53833008 137.18530273 C52.21833008 137.18530273 50.89833008 137.18530273 49.53833008 137.18530273 C49.53833008 137.84530273 49.53833008 138.50530273 49.53833008 139.18530273 C48.21833008 139.18530273 46.89833008 139.18530273 45.53833008 139.18530273 C45.20833008 140.17530273 44.87833008 141.16530273 44.53833008 142.18530273 C40.98405431 143.37006132 37.7597093 143.32875992 34.06176758 143.31811523 C32.97298813 143.31955032 32.97298813 143.31955032 31.86221313 143.3210144 C30.33074863 143.32169408 28.79928122 143.31985463 27.26782227 143.31567383 C24.91521807 143.31030704 22.56280346 143.31563389 20.21020508 143.32202148 C18.72322549 143.32136097 17.23624602 143.32008036 15.74926758 143.31811523 C15.04200531 143.32013947 14.33474304 143.3221637 13.60604858 143.32424927 C8.65329251 143.30026516 8.65329251 143.30026516 7.53833008 142.18530273 C5.92958008 141.96874023 5.92958008 141.96874023 4.28833008 141.74780273 C1.01599733 141.25695282 -1.4742838 140.54320552 -4.46166992 139.18530273 C-4.46166992 138.52530273 -4.46166992 137.86530273 -4.46166992 137.18530273 C-5.05592773 137.01514648 -5.65018555 136.84499023 -6.26245117 136.66967773 C-10.85312281 135.32745959 -15.28099924 133.86417163 -19.71166992 132.06030273 C-25.32912323 129.94369783 -30.72291442 129.58753315 -36.68823242 129.36108398 C-39.46166992 129.18530273 -39.46166992 129.18530273 -40.46166992 128.18530273 C-42.4346598 128.08600233 -44.41123206 128.05730816 -46.38671875 128.0559082 C-47.65506058 128.05275604 -48.9234024 128.04960388 -50.23017883 128.0463562 C-51.6263533 128.04814656 -53.02252744 128.05019765 -54.41870117 128.05249023 C-55.84258541 128.05181695 -57.26646955 128.05084672 -58.69035339 128.04959106 C-61.68062429 128.04811381 -64.67086538 128.05026855 -67.66113281 128.05493164 C-71.49120123 128.06061348 -75.32119934 128.05735994 -79.15126514 128.05135918 C-82.0946658 128.04774107 -85.03804987 128.04889817 -87.98145103 128.05148697 C-89.39322607 128.05215358 -90.80500262 128.05133709 -92.21677589 128.04900742 C-94.19399613 128.04646218 -96.17122164 128.05103067 -98.1484375 128.0559082 C-99.27349197 128.0567038 -100.39854645 128.05749939 -101.55769348 128.05831909 C-104.06469621 128.16794406 -106.06655066 128.51283662 -108.46166992 129.18530273 C-112.05443032 129.48714491 -115.64771185 129.69256228 -119.24682617 129.90405273 C-122.47645788 130.06115153 -122.47645788 130.06115153 -125.46166992 131.18530273 C-127.16789785 131.33634586 -128.87682699 131.45800444 -130.58666992 131.56030273 C-135.1747656 131.94163522 -139.09495701 132.83659508 -143.39916992 134.43530273 C-145.46166992 135.18530273 -145.46166992 135.18530273 -149.21166992 136.12280273 C-152.72197075 137.27040108 -154.78644585 138.66744478 -157.46166992 141.18530273 C-157.79166992 141.84530273 -158.12166992 142.50530273 -158.46166992 143.18530273 C-161.76166992 143.18530273 -165.06166992 143.18530273 -168.46166992 143.18530273 C-168.46166992 143.84530273 -168.46166992 144.50530273 -168.46166992 145.18530273 C-171.43166992 145.18530273 -174.40166992 145.18530273 -177.46166992 145.18530273 C-177.46166992 145.84530273 -177.46166992 146.50530273 -177.46166992 147.18530273 C-178.31631836 147.24588867 -179.1709668 147.30647461 -180.05151367 147.36889648 C-181.15624023 147.45268555 -182.2609668 147.53647461 -183.39916992 147.62280273 C-184.50131836 147.70401367 -185.6034668 147.78522461 -186.73901367 147.86889648 C-189.37276895 147.88948357 -189.37276895 147.88948357 -190.46166992 149.18530273 C-198.44571918 151.43595037 -207.39247629 152.53099856 -215.46166992 150.18530273 C-215.13166992 148.53530273 -214.80166992 146.88530273 -214.46166992 145.18530273 C-203.95934534 142.70514264 -193.41236278 140.49901369 -182.83862305 138.34741211 C-180.43039041 137.85409853 -178.02384276 137.35245912 -175.61938477 136.84106445 C-173.72068598 136.44676223 -171.81553841 136.07993511 -169.90161133 135.76782227 C-167.52802811 135.3945682 -167.52802811 135.3945682 -164.46166992 134.18530273 C-163.44916368 132.19160488 -162.4491767 130.19150072 -161.46166992 128.18530273 C-158.71742277 127.09006508 -156.56441179 126.45654056 -153.71166992 125.93530273 C-152.95813232 125.77602295 -152.20459473 125.61674316 -151.42822266 125.45263672 C-146.4804201 124.44524068 -141.5400398 123.80512161 -136.52416992 123.24780273 C-129.87303461 122.41466052 -125.08978309 120.78866787 -119.46166992 117.18530273 C-117.91479492 116.21850586 -117.91479492 116.21850586 -116.33666992 115.23217773 C-96.28817582 102.10194828 -83.09902798 84.76297195 -73.46166992 63.18530273 C-72.80166992 63.18530273 -72.14166992 63.18530273 -71.46166992 63.18530273 C-70.5469698 67.86856734 -70.27864193 72.42708395 -70.27416992 77.18530273 C-70.26192383 77.87108398 -70.24967773 78.55686523 -70.23706055 79.26342773 C-70.22457613 83.62465169 -70.86019292 87.13413561 -72.46166992 91.18530273 C-73.12166992 91.18530273 -73.78166992 91.18530273 -74.46166992 91.18530273 C-74.46166992 92.50530273 -74.46166992 93.82530273 -74.46166992 95.18530273 C-75.12166992 95.18530273 -75.78166992 95.18530273 -76.46166992 95.18530273 C-76.46166992 96.50530273 -76.46166992 97.82530273 -76.46166992 99.18530273 C-77.82495117 100.67358398 -77.82495117 100.67358398 -79.46166992 102.18530273 C-80.65766061 104.21762516 -80.65766061 104.21762516 -81.64916992 106.37280273 C-81.99334961 107.08823242 -82.3375293 107.80366211 -82.69213867 108.54077148 C-82.94608398 109.0834668 -83.2000293 109.62616211 -83.46166992 110.18530273 C-79.21957247 110.18530273 -77.71138237 108.35216767 -74.65307617 105.56420898 C-63.12377889 93.04844776 -59.74513034 77.28175176 -56.46166992 61.18530273 C-56.29040588 60.42259567 -56.11914185 59.65988861 -55.94268799 58.87406921 C-55.46802402 56.2208205 -55.34118836 53.81166556 -55.34814453 51.11962891 C-55.34822006 50.13898972 -55.34829559 49.15835052 -55.34837341 48.147995 C-55.3535347 47.10198624 -55.35869598 46.05597748 -55.36401367 44.97827148 C-55.36542862 43.89774002 -55.36684357 42.81720856 -55.36830139 41.70393372 C-55.37388912 38.26019497 -55.38643943 34.81652176 -55.39916992 31.37280273 C-55.40418651 29.03491305 -55.40874914 26.69702234 -55.4128418 24.35913086 C-55.42385454 18.63449921 -55.44058051 12.90990565 -55.46166992 7.18530273 C-54.04733562 6.70180056 -52.63191842 6.22146548 -51.21606445 5.74243164 C-50.42797394 5.47459869 -49.63988342 5.20676575 -48.82791138 4.93081665 C-45.3733807 3.84242363 -41.9025846 3.16609519 -38.33666992 2.56030273 C-37.69213867 2.43913086 -37.04760742 2.31795898 -36.38354492 2.19311523 C-24.40580972 0.09815014 -12.13041618 -0.00141265 0 0 Z " fill="#FCFCFC" transform="translate(540.461669921875,348.814697265625)"/>
<path d="M0 0 C4.65179239 4.87870909 8.13292818 8.55810982 8.12898254 15.66441345 C8.10317612 16.37199295 8.07736969 17.07957245 8.05078125 17.80859375 C8.04370651 18.55335464 8.03663177 19.29811554 8.02934265 20.06544495 C8.00158734 22.41969806 7.93889541 24.77147895 7.875 27.125 C7.84989226 28.73108518 7.82708344 30.33720804 7.80664062 31.94335938 C7.75182414 35.85901018 7.6656929 39.77283755 7.5625 43.6875 C6.9025 43.6875 6.2425 43.6875 5.5625 43.6875 C5.66691406 44.70457031 5.66691406 44.70457031 5.7734375 45.7421875 C6.24442322 53.83865634 4.04579897 58.12515824 -0.4375 64.6875 C-0.911875 65.71875 -1.38625 66.75 -1.875 67.8125 C-6.80357541 76.88107876 -14.25346089 81.91099265 -23.5 86.0625 C-27.50378633 86.91436943 -31.36120167 86.85055193 -35.4375 86.6875 C-35.4375 87.3475 -35.4375 88.0075 -35.4375 88.6875 C-40.10058199 88.71218646 -44.76362608 88.73035349 -49.42675781 88.74243164 C-51.01367861 88.74746588 -52.60059477 88.75429369 -54.1875 88.76293945 C-56.46615749 88.77504482 -58.74475376 88.78073733 -61.0234375 88.78515625 C-62.09070572 88.79289818 -62.09070572 88.79289818 -63.17953491 88.80079651 C-68.20975659 88.80137171 -68.20975659 88.80137171 -70.4375 87.6875 C-72.26915304 87.55708167 -74.1030747 87.45773825 -75.9375 87.375 C-82.03190694 86.93337631 -86.94926949 85.29805213 -92.4375 82.6875 C-92.4375 82.0275 -92.4375 81.3675 -92.4375 80.6875 C-92.994375 80.625625 -93.55125 80.56375 -94.125 80.5 C-100.37969622 78.30240403 -104.28491552 71.20680732 -107.4375 65.6875 C-115.1524271 49.42533001 -116.77791013 23.89335113 -111.47265625 6.8671875 C-109.71231849 3.16051403 -107.98018326 1.82647857 -104.4375 -0.3125 C-103.57318359 -0.84230469 -103.57318359 -0.84230469 -102.69140625 -1.3828125 C-79.93727319 -14.15540278 -21.52318842 -16.53544702 0 0 Z " fill="#FBFBFB" transform="translate(522.4375,497.3125)"/>
<path d="M0 0 C0.86431641 0.00870117 1.72863281 0.01740234 2.61914062 0.02636719 C16.94062855 0.20997601 33.56369019 3.04692961 45.375 11.75 C47.72183883 14.99946915 48.21605924 18.0802962 49 22 C49.66 22 50.32 22 51 22 C51 33.88 51 45.76 51 58 C50.34 58 49.68 58 49 58 C49 60.64 49 63.28 49 66 C48.34 66 47.68 66 47 66 C47 67.98 47 69.96 47 72 C46.34 72 45.68 72 45 72 C45.09410156 72.68964844 45.18820312 73.37929688 45.28515625 74.08984375 C44.89185354 78.10368648 42.86880861 80.50489192 40.4375 83.5625 C40.01919922 84.12646484 39.60089844 84.69042969 39.16992188 85.27148438 C34.71174603 91.00342475 29.08388745 94.22902814 22 96 C19.66787973 96.07522969 17.3314689 96.09325876 15 96 C15 96.66 15 97.32 15 98 C9.76725612 98.02467917 4.53454597 98.04285003 -0.69824219 98.05493164 C-2.47917267 98.05996711 -4.260099 98.06679581 -6.04101562 98.07543945 C-8.59766665 98.08753942 -11.15426312 98.09323609 -13.7109375 98.09765625 C-14.50994476 98.10281754 -15.30895203 98.10797882 -16.13217163 98.11329651 C-21.77225659 98.11387171 -21.77225659 98.11387171 -24 97 C-25.53668865 96.77532169 -27.07968054 96.59203195 -28.625 96.4375 C-29.44226563 96.35371094 -30.25953125 96.26992188 -31.1015625 96.18359375 C-31.72804688 96.12300781 -32.35453125 96.06242188 -33 96 C-33 95.34 -33 94.68 -33 94 C-36.96 93.34 -40.92 92.68 -45 92 C-45 91.34 -45 90.68 -45 90 C-45.73347656 89.74089844 -46.46695313 89.48179687 -47.22265625 89.21484375 C-55.98305542 85.38293919 -61.5280589 77.64809718 -65 69 C-69.09286618 56.51225342 -70.19797016 44.01252516 -70.4375 30.9375 C-70.50614258 29.40125977 -70.50614258 29.40125977 -70.57617188 27.83398438 C-70.68598385 20.36199595 -69.16722382 15.50737888 -64 10 C-61.03515625 7.87890625 -61.03515625 7.87890625 -58.0625 6.5625 C-57.08410156 6.11003906 -56.10570312 5.65757812 -55.09765625 5.19140625 C-37.48941977 -1.5809924 -18.52365912 -0.31604855 0 0 Z " fill="#FAFAFA" transform="translate(665,488)"/>
<path d="M0 0 C-0.66 0.66 -1.32 1.32 -2 2 C-2.64767793 4.57061311 -2.64767793 4.57061311 -3 7 C-3.66 7 -4.32 7 -5 7 C-5.14115234 7.88751953 -5.14115234 7.88751953 -5.28515625 8.79296875 C-6.15857626 11.48959338 -7.31568278 12.46418105 -9.4375 14.3125 C-13.05450101 17.73019687 -13.94639519 20.21088723 -15 25 C-15.99 25.495 -15.99 25.495 -17 26 C-17.68729254 28.11846285 -17.68729254 28.11846285 -18.125 30.5625 C-18.29257812 31.38878906 -18.46015625 32.21507812 -18.6328125 33.06640625 C-18.81457031 34.02353516 -18.81457031 34.02353516 -19 35 C-19.66 35 -20.32 35 -21 35 C-21 36.32 -21 37.64 -21 39 C-21.99 39.495 -21.99 39.495 -23 40 C-23.91692961 42.75078884 -24.10886083 44.35948913 -24.0625 47.1875 C-24.041875 48.445625 -24.02125 49.70375 -24 51 C-23.16339844 50.05640625 -22.32679688 49.1128125 -21.46484375 48.140625 C-13.30485874 39.08936225 -4.73469771 31.32147433 5 24 C5.66 24.33 6.32 24.66 7 25 C6.071875 25.804375 6.071875 25.804375 5.125 26.625 C2.7217098 29.31103023 1.93977847 31.55414562 1 35 C0.34 35 -0.32 35 -1 35 C-1.185625 35.9590625 -1.185625 35.9590625 -1.375 36.9375 C-1.58125 37.618125 -1.7875 38.29875 -2 39 C-2.99 39.495 -2.99 39.495 -4 40 C-4.33 40.99 -4.66 41.98 -5 43 C-5.66 43 -6.32 43 -7 43 C-7.66 44.98 -8.32 46.96 -9 49 C-9.66 49 -10.32 49 -11 49 C-11 50.32 -11 51.64 -11 53 C-11.66 53 -12.32 53 -13 53 C-13.0825 53.556875 -13.165 54.11375 -13.25 54.6875 C-14.23609434 57.72795754 -15.88586218 59.62960305 -18 62 C-18.99 62.495 -18.99 62.495 -20 63 C-20.65213292 65.02463255 -20.65213292 65.02463255 -21 67 C-21.66 67 -22.32 67 -23 67 C-23 68.32 -23 69.64 -23 71 C-23.66 71 -24.32 71 -25 71 C-25 72.98 -25 74.96 -25 77 C-25.66 77 -26.32 77 -27 77 C-27 78.98 -27 80.96 -27 83 C-27.66 83 -28.32 83 -29 83 C-28.97679687 83.79664063 -28.95359375 84.59328125 -28.9296875 85.4140625 C-28.73931473 96.59166372 -28.73931473 96.59166372 -31 101 C-33.125 102.875 -33.125 102.875 -35 104 C-37.41715429 98.30804306 -38.44223306 93.81472852 -38.36328125 87.66015625 C-38.36377975 86.89376328 -38.36427826 86.1273703 -38.36479187 85.3377533 C-38.36246768 83.72847887 -38.35283791 82.11919967 -38.33618164 80.51000977 C-38.3125928 78.07209084 -38.31563327 75.63526988 -38.32226562 73.19726562 C-38.30736205 65.58095527 -38.1437122 58.37061208 -36 51 C-36.99 51 -37.98 51 -39 51 C-39.0825 51.639375 -39.165 52.27875 -39.25 52.9375 C-39.92677075 55.70098056 -40.80497826 57.87426496 -42 60.4375 C-43.62549573 63.9594074 -44.60078534 67.10765708 -45 71 C-45.66 71 -46.32 71 -47 71 C-47.33 72.32 -47.66 73.64 -48 75 C-48.99 75 -49.98 75 -51 75 C-51.33 75.99 -51.66 76.98 -52 78 C-52.80897322 63.78304464 -51.34454999 52.21665661 -46 39 C-45.71624512 38.27232422 -45.43249023 37.54464844 -45.14013672 36.79492188 C-38.46518102 20.12830923 -25.88569495 12.02163331 -11 3 C-10.08605469 2.43796875 -9.17210937 1.8759375 -8.23046875 1.296875 C-5.2358441 -0.44430781 -3.20961072 -1.60480536 0 0 Z " fill="#F4F4F4" transform="translate(359,263)"/>
<path d="M0 0 C3.96453396 1.99821014 6.37412702 4.45477104 9 8 C9.47050781 8.61617187 9.94101562 9.23234375 10.42578125 9.8671875 C13.45784341 15.05607739 13.36949948 20.71052118 13.4375 26.5625 C13.44789307 27.36598877 13.45828613 28.16947754 13.46899414 28.99731445 C13.35812615 36.45605408 11.69634943 42.77235808 6.5625 48.375 C5.69818359 49.34566406 5.69818359 49.34566406 4.81640625 50.3359375 C0.63590883 54.16581255 -2.92986564 54.33282333 -8.41015625 54.171875 C-14.49704174 53.7679188 -18.38008995 53.09941298 -22.75 48.5625 C-29.10193981 40.50992642 -30.70009222 32.0541022 -30 22 C-29.34 22 -28.68 22 -28 22 C-28.04125 21.319375 -28.0825 20.63875 -28.125 19.9375 C-27.83710588 13.17198828 -25.45452309 7.76133847 -21 2.75 C-15.89940563 -1.71302008 -6.43618257 -1.18501288 0 0 Z " fill="#050505" transform="translate(644,506)"/>
<path d="M0 0 C6.73960888 6.40262844 10.77348242 12.77355635 11.81640625 22.25 C11.99600353 30.87066966 10.38292123 39.1327468 5.5 46.375 C0.72811802 51.2963369 -2.69931184 53.54736345 -9.625 53.8125 C-15.3438741 53.76200222 -18.58590093 52.97140889 -22.84765625 49.16015625 C-27.924521 43.67522199 -30.6460908 39.16516499 -30.59765625 31.609375 C-30.59443359 30.71992187 -30.59121094 29.83046875 -30.58789062 28.9140625 C-30.57532227 27.53347656 -30.57532227 27.53347656 -30.5625 26.125 C-30.55798828 25.18914063 -30.55347656 24.25328125 -30.54882812 23.2890625 C-30.53706918 20.98430959 -30.52063426 18.67968773 -30.5 16.375 C-29.84 16.375 -29.18 16.375 -28.5 16.375 C-28.5 15.055 -28.5 13.735 -28.5 12.375 C-27.93765528 6.99012326 -25.3621444 4.49035198 -21.5078125 0.90625 C-15.80908772 -3.43985917 -6.20922825 -2.88285597 0 0 Z " fill="#030303" transform="translate(486.5,507.625)"/>
<path d="M0 0 C4.92196412 0.70313773 7.06124579 2.65797161 10.78125 5.8046875 C13.37881574 7.92226827 15.88040271 9.22991913 18.9375 10.5625 C18.9375 11.2225 18.9375 11.8825 18.9375 12.5625 C20.2575 12.5625 21.5775 12.5625 22.9375 12.5625 C22.9375 13.2225 22.9375 13.8825 22.9375 14.5625 C36.7975 14.5625 50.6575 14.5625 64.9375 14.5625 C64.9375 13.9025 64.9375 13.2425 64.9375 12.5625 C66.18641614 12.08051537 67.43668808 11.60204323 68.6875 11.125 C69.73164062 10.72474609 69.73164062 10.72474609 70.796875 10.31640625 C72.82809003 9.60103307 74.8410291 9.04884348 76.9375 8.5625 C76.9375 7.9025 76.9375 7.2425 76.9375 6.5625 C78.2575 6.5625 79.5775 6.5625 80.9375 6.5625 C80.9375 5.9025 80.9375 5.2425 80.9375 4.5625 C83.8125 4.375 83.8125 4.375 86.9375 4.5625 C88.9375 7.5625 88.9375 7.5625 88.8203125 10.5 C87.20663562 16.09788793 82.71239699 18.58486237 77.9375 21.5625 C61.61953775 29.97214454 41.01541544 33.00512599 23.14770508 28.0246582 C12.38063671 24.56646038 2.21949223 19.49072672 -5.0625 10.5625 C-6.04046885 7.3608813 -5.77276757 5.93627096 -5.0625 2.5625 C-3.0625 0.5625 -3.0625 0.5625 0 0 Z " fill="#0A0A0A" transform="translate(517.0625,615.4375)"/>
<path d="M0 0 C11.13196896 2.63651896 20.55135409 11.79649294 26.4375 21.25 C29 25.55874674 29 25.55874674 29 29 C29.66 29 30.32 29 31 29 C35.31423169 42.23031051 36.05515986 60.36706966 33 74 C31 77 31 77 28.875 77.6875 C28.25625 77.790625 27.6375 77.89375 27 78 C26.96261719 76.74445313 26.92523437 75.48890625 26.88671875 74.1953125 C26.45930141 61.33343301 26.45930141 61.33343301 23 49 C22.01 49.495 22.01 49.495 21 50 C20.34412593 53.00739347 20.34412593 53.00739347 19.9375 56.5 C19.0951189 62.9048811 19.0951189 62.9048811 18 64 C17.89345431 65.35253829 17.81508517 66.70733369 17.75 68.0625 C17.0593864 74.47098792 14.52980405 78.74109034 9.73828125 83.01953125 C4.19459834 87.40270083 4.19459834 87.40270083 1 89 C1.84795222 86.31481796 2.68792515 83.66695642 3.8828125 81.11328125 C13.83475572 59.28953175 13.12129215 33.61148122 5.30859375 11.37890625 C3.77340914 7.41492211 2.05028172 3.72088164 0 0 Z " fill="#F5F5F5" transform="translate(649,221)"/>
<path d="M0 0 C7.76984017 0.17198865 11.88379431 4.08250983 17.078125 9.44921875 C23.63682575 17.00398386 26.09865238 24.40615645 26 34.3125 C26.01160156 35.47168945 26.01160156 35.47168945 26.0234375 36.65429688 C26.00672201 41.59790235 25.32313475 45.68680873 23.75 50.375 C23.09 50.375 22.43 50.375 21.75 50.375 C21.646875 50.973125 21.54375 51.57125 21.4375 52.1875 C20.60510163 54.83604026 20.07045815 55.8280279 17.75 57.375 C12.73681057 57.93202105 9.81291733 57.36243921 5.75 54.375 C4.75 53.375 4.75 53.375 4.6171875 51.34375 C4.61976563 50.5290625 4.62234375 49.714375 4.625 48.875 C4.62242187 48.0603125 4.61984375 47.245625 4.6171875 46.40625 C4.75 44.375 4.75 44.375 5.75 43.375 C5.90620555 41.96172053 6.00056173 40.5414541 6.06640625 39.12109375 C6.10830078 38.26708984 6.15019531 37.41308594 6.19335938 36.53320312 C6.25233398 35.18645508 6.25233398 35.18645508 6.3125 33.8125 C6.35568359 32.91080078 6.39886719 32.00910156 6.44335938 31.08007812 C6.54978142 28.84521515 6.65179988 26.61023692 6.75 24.375 C6.09 24.375 5.43 24.375 4.75 24.375 C4.21375 23.653125 3.6775 22.93125 3.125 22.1875 C0.77812207 19.40830245 -0.34954607 18.79310202 -3.5 17.3125 C-5.6015625 16.1015625 -5.6015625 16.1015625 -7.25 14.375 C-8.07121342 10.29083191 -7.98797672 6.47016592 -7.25 2.375 C-4.68599223 -0.18900777 -3.56217985 0.04866366 0 0 Z " fill="#080808" transform="translate(315.25,591.625)"/>
<path d="M0 0 C8.6073593 3.32614769 8.6073593 3.32614769 11.5234375 6.2109375 C13.70188438 11.67773616 13.8384243 16.85788965 13.7734375 22.6484375 C13.76328613 23.96134766 13.76328613 23.96134766 13.75292969 25.30078125 C13.54892771 38.35690777 12.97180597 53.03838479 5.5234375 64.2109375 C4.8634375 64.2109375 4.2034375 64.2109375 3.5234375 64.2109375 C3.5234375 63.2209375 3.5234375 62.2309375 3.5234375 61.2109375 C2.8634375 61.2109375 2.2034375 61.2109375 1.5234375 61.2109375 C1.46285156 60.57285156 1.40226563 59.93476562 1.33984375 59.27734375 C1.25605469 58.45105469 1.17226563 57.62476563 1.0859375 56.7734375 C1.00472656 55.94972656 0.92351563 55.12601563 0.83984375 54.27734375 C0.73412935 52.22431725 0.73412935 52.22431725 -0.4765625 51.2109375 C-0.79579742 49.1536458 -0.98817602 47.09480229 -1.1953125 45.0234375 C-1.29654293 43.1941842 -1.29654293 43.1941842 -2.4765625 42.2109375 C-2.54882752 40.35806248 -2.5603747 38.50259872 -2.5390625 36.6484375 C-2.53003906 35.63652344 -2.52101563 34.62460937 -2.51171875 33.58203125 C-2.50011719 32.79957031 -2.48851562 32.01710938 -2.4765625 31.2109375 C-3.1365625 31.2109375 -3.7965625 31.2109375 -4.4765625 31.2109375 C-4.65832031 30.004375 -4.84007812 28.7978125 -5.02734375 27.5546875 C-5.28080672 25.94003452 -5.53473803 24.32545501 -5.7890625 22.7109375 C-5.90701172 21.91945313 -6.02496094 21.12796875 -6.14648438 20.3125 C-7.00589504 14.93567429 -8.49399543 10.27749778 -10.4765625 5.2109375 C-10.6640625 2.2109375 -10.6640625 2.2109375 -10.4765625 0.2109375 C-6.90771299 -1.57348725 -3.75523503 -1.1964629 0 0 Z " fill="#070707" transform="translate(694.4765625,500.7890625)"/>
<path d="M0 0 C-0.721875 0.37125 -1.44375 0.7425 -2.1875 1.125 C-5.48232711 3.32155141 -7.48150556 5.96489132 -10 9 C-12.25 10.25 -12.25 10.25 -14 11 C-14.33 11.66 -14.66 12.32 -15 13 C-16.54048504 13.77459417 -18.10807289 14.49576286 -19.6875 15.1875 C-23.25844412 16.89973488 -25.61021922 18.33887787 -28 21.5 C-30.91308422 25.32862498 -34.28561606 26.93631614 -38.6328125 28.859375 C-41.05971328 29.93400507 -41.05971328 29.93400507 -43.1796875 31.640625 C-45 33 -45 33 -47 33 C-47 33.66 -47 34.32 -47 35 C-48.46875 36.375 -48.46875 36.375 -50.5 38 C-54.68871383 41.52148508 -57.83212259 45.44921274 -61.04296875 49.86328125 C-63.21979519 52.23997599 -64.95410215 53.04782813 -68 54 C-67.88605685 47.61918361 -66.24391486 42.54641661 -63.75 36.75 C-63.4624585 36.06486328 -63.17491699 35.37972656 -62.87866211 34.67382812 C-56.22332857 19.77518357 -35.86941569 10.55576417 -21.29541016 4.96191406 C-18.43705405 3.91817879 -15.56893697 2.91563184 -12.6875 1.9375 C-11.77339355 1.62594971 -10.85928711 1.31439941 -9.91748047 0.9934082 C-9.0617041 0.71585693 -8.20592773 0.43830566 -7.32421875 0.15234375 C-6.56197998 -0.09523682 -5.79974121 -0.34281738 -5.0144043 -0.59790039 C-3 -1 -3 -1 0 0 Z " fill="#F5F5F5" transform="translate(577,181)"/>
<path d="M0 0 C26.5653857 -0.87942453 48.84587432 2.18217441 69.17578125 21.015625 C73.28965333 25.32919961 76.44130949 30.06482875 79.4375 35.1875 C79.77998779 35.76967285 80.12247559 36.3518457 80.4753418 36.95166016 C82.52113005 40.61583632 83.55113023 43.83372992 84 48 C80.18728209 44.82273508 76.54483529 41.600001 73.0625 38.0625 C59.64293236 24.56624912 44.54557942 16.11503497 27 9 C25.68902344 8.44505859 25.68902344 8.44505859 24.3515625 7.87890625 C21.87407187 6.85062951 21.87407187 6.85062951 18.5625 6.5625 C15 6 15 6 12.0625 4.5 C9.25818866 3.12645975 7.70158169 2.73247241 4.6875 2.4375 C3.470625 2.293125 2.25375 2.14875 1 2 C0.67 1.34 0.34 0.68 0 0 Z " fill="#F1F1F1" transform="translate(599,176)"/>
<path d="M0 0 C7.87265525 6.42665734 14.96424534 13.0096074 18 23 C18.25 26.5625 18.25 26.5625 18 29 C18.66 29 19.32 29 20 29 C20.02685095 31.47923801 20.04676547 33.9581884 20.0625 36.4375 C20.07087891 37.14455078 20.07925781 37.85160156 20.08789062 38.58007812 C20.09653588 40.38693559 20.05220011 42.19387603 20 44 C19.67 44.33 19.34 44.66 19 45 C18.92851801 46.35243917 18.91600546 47.70834367 18.9375 49.0625 C18.958125 50.361875 18.97875 51.66125 19 53 C19.99 53 20.98 53 22 53 C16.20560428 60.6801458 16.20560428 60.6801458 11.9375 61.8125 C8.89443453 60.97080104 6.32956199 60.15298301 3.9921875 57.9609375 C2.09558974 54.2125435 3.57715695 50.25163861 4.33203125 46.28125 C6.62022791 33.2870104 5.55682569 19.63106881 2 7 C1.78730469 6.2059375 1.57460938 5.411875 1.35546875 4.59375 C0.93100611 3.0546912 0.47206447 1.52513135 0 0 Z " fill="#F6F6F6" transform="translate(712,265)"/>
<path d="M0 0 C4.42372317 3.98022397 5.73239002 9.02571718 6.25643921 14.85012817 C6.34543096 18.06219117 6.33767261 21.25969174 6.29296875 24.47265625 C6.28872391 25.6363121 6.28447906 26.79996796 6.28010559 27.99888611 C6.26341785 31.68700058 6.22578319 35.37455286 6.1875 39.0625 C6.1724404 41.57486186 6.15875424 44.08723235 6.14648438 46.59960938 C6.11354677 52.7332622 6.06344658 58.86659092 6 65 C5.34 65 4.68 65 4 65 C4.103125 65.99 4.20625 66.98 4.3125 68 C4.33812639 72.22835445 2.57890629 74.67987179 0.234375 78.078125 C-1.36407918 80.56685746 -2.0884223 83.2001542 -3 86 C-4.4375 87.875 -4.4375 87.875 -6 89 C-6.99 89 -7.98 89 -9 89 C-9.33 89.99 -9.66 90.98 -10 92 C-11.30760668 88.07717995 -10.3412036 86.8015855 -8.8125 83 C-6.55979195 77.11626148 -5.01637283 71.23148467 -3.75 65.0625 C-3.58733643 64.27037109 -3.42467285 63.47824219 -3.25708008 62.66210938 C-2.815969 60.44368336 -2.38613049 58.22870575 -2 56 C-1.82509033 54.99050293 -1.65018066 53.98100586 -1.4699707 52.94091797 C-0.85942183 47.82118814 -0.76672714 42.74949657 -0.68359375 37.59765625 C-0.6524221 35.9811039 -0.6524221 35.9811039 -0.62062073 34.33189392 C-0.55553839 30.90882388 -0.49643327 27.48568088 -0.4375 24.0625 C-0.39427545 21.73371659 -0.35065993 19.4049404 -0.30664062 17.07617188 C-0.19989965 11.38419041 -0.09805853 5.69213731 0 0 Z " fill="#EAEAEA" transform="translate(454,319)"/>
<path d="M0 0 C4.91853586 3.86962619 8.63754267 7.70158238 12 13 C12 13.66 12 14.32 12 15 C12.66 15 13.32 15 14 15 C14 16.32 14 17.64 14 19 C14.66 19 15.32 19 16 19 C16.144375 20.134375 16.28875 21.26875 16.4375 22.4375 C16.61171478 25.80777201 16.61171478 25.80777201 18 27 C18.09975032 29.51136104 18.13882183 31.98903415 18.125 34.5 C18.13080078 35.55380859 18.13080078 35.55380859 18.13671875 36.62890625 C18.12661378 41.87338622 18.12661378 41.87338622 17 43 C16.76924918 44.34747084 16.58846937 45.70377565 16.4375 47.0625 C16.293125 48.361875 16.14875 49.66125 16 51 C15.34 51 14.68 51 14 51 C14 52.32 14 53.64 14 55 C13.34 55 12.68 55 12 55 C12 56.32 12 57.64 12 59 C11.34 59 10.68 59 10 59 C9.95875 59.5775 9.9175 60.155 9.875 60.75 C8.5526117 64.15042705 6.05883766 65.1646974 3 67 C1.515 67.99 1.515 67.99 0 69 C0.17015625 68.44054687 0.3403125 67.88109375 0.515625 67.3046875 C1.04212391 65.56276027 1.55780912 63.81755047 2.06640625 62.0703125 C2.68762427 60.02731099 3.3624022 57.99982187 4.08984375 55.9921875 C8.70618477 42.35673183 9.40994979 25.51355658 4 12 C3.64035156 11.07574219 3.28070312 10.15148437 2.91015625 9.19921875 C2.21746973 7.4564096 1.50629649 5.72073149 0.76953125 3.99609375 C0 2 0 2 0 0 Z " fill="#EDEDED" transform="translate(726,355)"/>
<path d="M0 0 C7.52786351 6.84351228 12.52567551 15.66863413 17.51953125 24.43359375 C18.61299862 26.32912954 19.7861407 28.17921105 21 30 C21.76366307 32.33871815 22.41723061 34.61550662 23 37 C23.26272705 38.07084839 23.26272705 38.07084839 23.53076172 39.16333008 C24.98813534 45.7174367 25.24123147 51.92827897 25.125 58.625 C25.11597656 59.62917969 25.10695313 60.63335937 25.09765625 61.66796875 C25.07437746 64.11224126 25.04168487 66.55598408 25 69 C24.34 69 23.68 69 23 69 C23 70.98 23 72.96 23 75 C22.34 75 21.68 75 21 75 C20.95875 75.598125 20.9175 76.19625 20.875 76.8125 C19.56372343 80.09069142 17.09714438 80.56644113 14 82 C14.144375 80.83726562 14.28875 79.67453125 14.4375 78.4765625 C16.30720872 62.69788288 17.70601955 47.40472318 13 32 C12.79068848 31.29842773 12.58137695 30.59685547 12.36572266 29.87402344 C9.73399091 21.14628461 6.89253204 12.93786869 2.19921875 5.06640625 C1 3 1 3 0 0 Z " fill="#EBEBEC" transform="translate(639,341)"/>
<path d="M0 0 C2.50702016 3.76053024 2.49387317 6.65241954 2 11 C1.28436243 14.12233651 0.50824854 17.16349965 -1 20 C-1.99 20.33 -2.98 20.66 -4 21 C-4.33 23.64 -4.66 26.28 -5 29 C-5.66 29 -6.32 29 -7 29 C-7.020625 29.825 -7.04125 30.65 -7.0625 31.5 C-8.57887272 37.1611248 -12.22819931 41.05811224 -16.99609375 44.3984375 C-21.35265523 46.79327246 -24.97150596 47.67691266 -30 47 C-32.4375 45.6875 -32.4375 45.6875 -34 44 C-34 43.01 -34 42.02 -34 41 C-33.19175781 40.61328125 -32.38351562 40.2265625 -31.55078125 39.828125 C-29.94783203 39.04695313 -29.94783203 39.04695313 -28.3125 38.25 C-27.25675781 37.73953125 -26.20101563 37.2290625 -25.11328125 36.703125 C-11.7951594 29.41742722 -5.89836671 13.27534305 0 0 Z " fill="#EAEAEA" transform="translate(423,383)"/>
<path d="M0 0 C16.326224 -0.82100764 31.67044834 1.66796618 44.59228516 12.59960938 C46.53329012 14.95914353 46.0380577 17.1825524 45.84228516 20.11914062 C43.34228516 20.55664062 43.34228516 20.55664062 39.84228516 20.11914062 C37.73111335 18.55235903 35.88918799 16.7993296 33.97509766 14.99804688 C30.61627763 12.03908637 26.92238743 9.93251941 22.84228516 8.11914062 C22.27888428 7.86672607 21.7154834 7.61431152 21.13500977 7.35424805 C13.4781449 4.34988718 5.39176232 4.32295689 -2.72021484 3.93164062 C-4.22092813 3.85009598 -5.72158055 3.76742271 -7.22216797 3.68359375 C-10.86674033 3.48242653 -14.51189929 3.2965425 -18.15771484 3.11914062 C-12.35410057 0.06863069 -6.45866318 0.35662227 0 0 Z " fill="#EFEFEF" transform="translate(414.15771484375,233.880859375)"/>
<path d="M0 0 C0.33 0 0.66 0 1 0 C1.09796875 0.73605469 1.1959375 1.47210938 1.296875 2.23046875 C2.1953193 8.09359234 3.05999004 11.46301883 7 16 C7.47981605 17.44496329 7.91314368 18.90576316 8.3125 20.375 C10.55256979 27.36078466 14.64302322 30.81397209 21.015625 34.2109375 C24.96777694 36.23475966 28.96971805 38.13726465 33 40 C33 40.33 33 40.66 33 41 C25.74811171 40.64949207 19.65297388 39.97007762 13 37 C12.3296875 36.71125 11.659375 36.4225 10.96875 36.125 C5.66407476 33.09375701 2.00637005 26.21037261 -0.31640625 20.70703125 C-1.92886038 14.3217129 -2.08111461 6.24334383 0 0 Z " fill="#EEEEEE" transform="translate(223,351)"/>
<path d="M0 0 C0 0.66 0 1.32 0 2 C-1.9570868 2.67031719 -3.91571113 3.33614683 -5.875 4 C-7.51082031 4.556875 -7.51082031 4.556875 -9.1796875 5.125 C-12 6 -12 6 -14 6 C-14.33 6.99 -14.66 7.98 -15 9 C-16.72847515 9.75009299 -18.46049799 10.49451562 -20.21875 11.171875 C-22.65334015 12.30374586 -24.18814315 14.05393153 -26 16 C-26.66 16 -27.32 16 -28 16 C-28 16.66 -28 17.32 -28 18 C-32.95 19.485 -32.95 19.485 -38 21 C-38 21.66 -38 22.32 -38 23 C-42.14453354 26.96570849 -46.13998008 29.706999 -52 30 C-49.4520705 24.74489541 -45.46010204 21.59038214 -41 18 C-40.2059375 17.34644531 -39.411875 16.69289062 -38.59375 16.01953125 C-28.4446234 8.11727455 -13.21598764 0 0 0 Z " fill="#C7C8C9" transform="translate(586,201)"/>
<path d="M0 0 C11.96655546 -0.23086602 23.81019698 0.05471965 35.75 0.9375 C37.54401245 1.06777588 37.54401245 1.06777588 39.37426758 1.20068359 C47.86846864 1.86846864 47.86846864 1.86846864 49 3 C51.50416935 3.21063107 53.99140081 3.37572077 56.5 3.5 C63.86486486 3.86486486 63.86486486 3.86486486 65 5 C67.28857486 5.18822483 69.58148289 5.3244393 71.875 5.4375 C78.36935087 5.79816744 84.63100241 6.6361606 91 8 C91 8.33 91 8.66 91 9 C89.37509046 9.02698189 87.75005367 9.04638757 86.125 9.0625 C84.76761719 9.07990234 84.76761719 9.07990234 83.3828125 9.09765625 C81 9 81 9 79 8 C75.34418829 7.73492604 71.69453367 7.55514201 68.03320312 7.39453125 C62.1006921 7.1006921 62.1006921 7.1006921 61 6 C58.83703727 5.79068103 56.6690529 5.63202931 54.5 5.5 C48.11111111 5.11111111 48.11111111 5.11111111 47 4 C44.95229506 3.8537219 42.89987361 3.77257114 40.84765625 3.71875 C38.97110352 3.66267578 38.97110352 3.66267578 37.05664062 3.60546875 C35.73857422 3.57066406 34.42050781 3.53585937 33.0625 3.5 C30.46993586 3.43133965 27.8774747 3.35863264 25.28515625 3.28125 C24.12894775 3.25095703 22.97273926 3.22066406 21.78149414 3.18945312 C19 3 19 3 17 2 C14.12089412 1.76725791 11.25853505 1.58027243 8.375 1.4375 C7.57320312 1.39431641 6.77140625 1.35113281 5.9453125 1.30664062 C3.9637489 1.20048543 1.98189729 1.09973145 0 1 C0 0.67 0 0.34 0 0 Z " fill="#404040" transform="translate(642,474)"/>
<path d="M0 0 C1.27779831 -0.00307663 2.55559662 -0.00615326 3.87211609 -0.00932312 C5.26215801 -0.00242695 6.65219814 0.0048399 8.04223633 0.01245117 C9.46901915 0.01364359 10.89580276 0.014096 12.32258606 0.01383972 C15.30755552 0.01540176 18.29240457 0.0236724 21.27734375 0.03710938 C25.11099307 0.0541451 28.94451073 0.05792226 32.77819347 0.05716419 C35.72147385 0.05743547 38.66472523 0.06290912 41.60799599 0.07016563 C43.02224826 0.07335545 44.43650383 0.07532044 45.85075951 0.07605934 C47.82109122 0.07821696 49.79141078 0.08774546 51.76171875 0.09765625 C53.44572029 0.10337395 53.44572029 0.10337395 55.16374207 0.10920715 C57.68676758 0.24291992 57.68676758 0.24291992 58.68676758 1.24291992 C60.81005873 1.37749471 62.93574729 1.47471416 65.06176758 1.55541992 C71.86591597 1.97370773 77.47018997 3.51523791 83.68676758 6.24291992 C81.74926758 6.80541992 81.74926758 6.80541992 79.68676758 7.24291992 C79.19176758 6.74791992 79.19176758 6.74791992 78.68676758 6.24291992 C77.35894879 6.03687908 76.02380863 5.87662403 74.68676758 5.74291992 C70.79787869 5.35403103 70.79787869 5.35403103 69.68676758 4.24291992 C67.54472447 4.03308713 65.39752644 3.87468607 63.24926758 3.74291992 C56.90704292 3.35305759 56.90704292 3.35305759 54.68676758 2.24291992 C52.62383773 2.15131655 50.55787873 2.12540812 48.49291992 2.12939453 C47.19172211 2.12947006 45.89052429 2.12954559 44.54989624 2.12962341 C43.12416547 2.13473045 41.69843508 2.13994646 40.27270508 2.14526367 C38.81824797 2.14712845 37.36379024 2.14855207 35.90933228 2.14955139 C32.07883982 2.15337187 28.24838521 2.16319816 24.41790771 2.17425537 C20.51013704 2.18447957 16.60236027 2.18905118 12.69458008 2.1940918 C5.02529198 2.20482084 -2.64396492 2.22189164 -10.31323242 2.24291992 C-6.82405716 0.10254886 -4.05335337 -0.00513406 0 0 Z " fill="#3D3D3D" transform="translate(442.313232421875,475.757080078125)"/>
<path d="M0 0 C-0.33 0.99 -0.66 1.98 -1 3 C-1.66 3 -2.32 3 -3 3 C-3.33 3.99 -3.66 4.98 -4 6 C-5.68388408 6.45126422 -7.36910884 6.89827013 -9.06152344 7.31640625 C-12.53297293 8.54059499 -14.96049203 11.03309908 -17.625 13.5 C-21.18418305 16.74859397 -24.3097758 19.53539467 -29 21 C-25.28137488 13.33033569 -8.7413092 -2.91376973 0 0 Z " fill="#ECECEC" transform="translate(563,210)"/>
<path d="M0 0 C2.7211493 0.88437352 3.95082809 1.40267703 5.5 3.8125 C5.25546876 7.15442692 4.89456443 8.41793557 2.5 10.8125 C-1 10.625 -1 10.625 -4.5 9.8125 C-6.5 6.8125 -6.5 6.8125 -6.3125 4.25 C-5.15962997 0.79138991 -3.65190892 -0.27389317 0 0 Z " fill="#F0F0F0" transform="translate(729.5,494.1875)"/>
<path d="M0 0 C1.13308594 -0.02578125 2.26617187 -0.0515625 3.43359375 -0.078125 C6.80392471 0.27531795 8.1223938 0.97176817 10.5625 3.25 C8.5825 3.25 6.6025 3.25 4.5625 3.25 C4.5625 2.59 4.5625 1.93 4.5625 1.25 C2.47676154 1.47906954 0.39386359 1.73409892 -1.6875 2 C-3.42773438 2.20882813 -3.42773438 2.20882813 -5.203125 2.421875 C-8.83454499 3.35165886 -10.16091651 4.32296408 -12.4375 7.25 C-12.7675 8.24 -13.0975 9.23 -13.4375 10.25 C-14.4275 10.25 -15.4175 10.25 -16.4375 10.25 C-16.7675 13.55 -17.0975 16.85 -17.4375 20.25 C-18.0975 20.25 -18.7575 20.25 -19.4375 20.25 C-19.34978454 22.93893267 -19.24282075 25.62485308 -19.125 28.3125 C-19.09116211 29.44075195 -19.09116211 29.44075195 -19.05664062 30.59179688 C-18.87195598 34.47017444 -18.47109162 37.57523805 -16.83203125 41.12109375 C-15.4375 44.25 -15.4375 44.25 -16.4375 47.25 C-19.46920703 42.50471944 -20.57108227 39.08883396 -20.53515625 33.484375 C-20.53193359 32.59492187 -20.52871094 31.70546875 -20.52539062 30.7890625 C-20.51282227 29.40847656 -20.51282227 29.40847656 -20.5 28 C-20.49548828 27.06414063 -20.49097656 26.12828125 -20.48632812 25.1640625 C-20.47456918 22.85930959 -20.45813426 20.55468773 -20.4375 18.25 C-19.7775 18.25 -19.1175 18.25 -18.4375 18.25 C-18.4375 16.93 -18.4375 15.61 -18.4375 14.25 C-17.87515528 8.86512326 -15.2996444 6.36535198 -11.4453125 2.78125 C-7.79953366 0.00081166 -4.44549673 0.0605516 0 0 Z " fill="#636363" transform="translate(476.4375,505.75)"/>
<path d="M0 0 C-1.9645126 1.9645126 -5.67592851 1.36454474 -8.375 1.5 C-13.76355137 1.75276441 -13.76355137 1.75276441 -19 3 C-20.73763197 3.09351594 -22.47860471 3.13069921 -24.21875 3.1328125 C-25.23324219 3.13410156 -26.24773438 3.13539063 -27.29296875 3.13671875 C-28.35128906 3.13285156 -29.40960937 3.12898437 -30.5 3.125 C-32.08748047 3.13080078 -32.08748047 3.13080078 -33.70703125 3.13671875 C-34.72152344 3.13542969 -35.73601563 3.13414062 -36.78125 3.1328125 C-37.71001953 3.13168457 -38.63878906 3.13055664 -39.59570312 3.12939453 C-42 3 -42 3 -45 2 C-47.22574335 1.77548542 -49.45581519 1.59217122 -51.6875 1.4375 C-52.86699219 1.35371094 -54.04648437 1.26992188 -55.26171875 1.18359375 C-56.16535156 1.12300781 -57.06898438 1.06242188 -58 1 C-58 0.67 -58 0.34 -58 0 C-56.87207031 0.00523682 -55.74414062 0.01047363 -54.58203125 0.01586914 C-50.3177167 0.03424091 -46.05340549 0.04554708 -41.7890625 0.05493164 C-39.95832731 0.0598995 -38.12759595 0.06667607 -36.296875 0.07543945 C-25.80380782 0.12433807 -15.4189921 -0.02716054 -4.95703125 -0.88110352 C-2 -1 -2 -1 0 0 Z " fill="#4E4E4E" transform="translate(567,758)"/>
<path d="M0 0 C3 0.25 3 0.25 5 2.25 C5.25 5.25 5.25 5.25 5 8.25 C3 10.25 3 10.25 0.5625 10.5625 C-2 10.25 -2 10.25 -3.8125 9.0625 C-5.40199375 6.6364306 -5.36487512 5.09602594 -5 2.25 C-3 0.25 -3 0.25 0 0 Z " fill="#F6F6F6" transform="translate(395,494.75)"/>
<path d="M0 0 C1.18464844 -0.00257813 2.36929687 -0.00515625 3.58984375 -0.0078125 C6.83785743 0.1164085 9.87453717 0.51174303 13.0625 1.125 C12.0725 2.61 12.0725 2.61 11.0625 4.125 C8.90771484 4.46557617 8.90771484 4.46557617 6.2734375 4.41796875 C5.33242188 4.40830078 4.39140625 4.39863281 3.421875 4.38867188 C2.43703125 4.36353516 1.4521875 4.33839844 0.4375 4.3125 C-1.05136719 4.29219727 -1.05136719 4.29219727 -2.5703125 4.27148438 C-5.02658072 4.23605743 -7.48177285 4.18666196 -9.9375 4.125 C-9.9375 3.465 -9.9375 2.805 -9.9375 2.125 C-10.5975 1.795 -11.2575 1.465 -11.9375 1.125 C-7.90752703 0.16511986 -4.13759932 -0.00898501 0 0 Z " fill="#222222" transform="translate(422.9375,222.875)"/>
<path d="M0 0 C0.66 0.33 1.32 0.66 2 1 C2.20638953 28.94514191 2.20638953 28.94514191 1 42 C0.34 42 -0.32 42 -1 42 C-0.97679687 42.65226563 -0.95359375 43.30453125 -0.9296875 43.9765625 C-0.82416247 49.08698903 -0.98073698 53.20425033 -3 58 C-3.33 58 -3.66 58 -4 58 C-4.04254356 56.00045254 -4.04080783 53.99958364 -4 52 C-3.505 51.505 -3.505 51.505 -3 51 C-2.2993759 46.62868618 -1.89731978 42.21481288 -1.4375 37.8125 C-1.30110107 36.51159424 -1.16470215 35.21068848 -1.02416992 33.87036133 C0.10879754 22.56384038 0.31573802 11.35487486 0 0 Z " fill="#767676" transform="translate(700,596)"/>
<path d="M0 0 C2 3 2 3 2 5 C1.01 5.495 1.01 5.495 0 6 C0 11.94 0 17.88 0 24 C-0.66 24 -1.32 24 -2 24 C-2.33 24.99 -2.66 25.98 -3 27 C-4.2034606 17.68131182 -4.65160054 8.4788668 0 0 Z " fill="#2C2C2C" transform="translate(217,348)"/>
<path d="M0 0 C-0.33 1.65 -0.66 3.3 -1 5 C-1.33 4.34 -1.66 3.68 -2 3 C-4.50965614 3.70339566 -4.50965614 3.70339566 -7 5 C-7.88693303 7.04105639 -7.88693303 7.04105639 -8 9 C-8.66 9 -9.32 9 -10 9 C-10 9.66 -10 10.32 -10 11 C-11.63260714 12.37482707 -13.30225062 13.70647667 -15 15 C-15.66 15.66 -16.32 16.32 -17 17 C-17 16.34 -17 15.68 -17 15 C-17.66 15 -18.32 15 -19 15 C-17.46294916 11.21781873 -15.15470258 9.0630744 -12.125 6.375 C-11.26132813 5.59898437 -10.39765625 4.82296875 -9.5078125 4.0234375 C-6.21193893 1.3641501 -4.26390139 0 0 0 Z " fill="#181818" transform="translate(253,310)"/>
<path d="M0 0 C0 0.99 0 1.98 0 3 C-1.32 3 -2.64 3 -4 3 C-4 3.66 -4 4.32 -4 5 C-4.99 5.66 -5.98 6.32 -7 7 C-7.474375 7.845625 -7.94875 8.69125 -8.4375 9.5625 C-10.28368118 12.44254264 -10.85528896 12.28990396 -14 13 C-15.00916033 14.76591887 -15.00916033 14.76591887 -16 17 C-19.56464882 21.99050835 -22.22735696 23.96259657 -28 26 C-27.67 24.02 -27.34 22.04 -27 20 C-26.34 20.66 -25.68 21.32 -25 22 C-20.20904242 19.82229201 -17.8366957 16.39013704 -14.7734375 12.296875 C-12.39729037 9.21939811 -9.87984902 6.61195608 -7 4 C-6.34 4 -5.68 4 -5 4 C-5 3.34 -5 2.68 -5 2 C-2 0 -2 0 0 0 Z " fill="#7E7E7F" transform="translate(535,212)"/>
<path d="M0 0 C5.875 0.875 5.875 0.875 7 2 C10.02663789 2.62646121 13.05677246 3.1892213 16.1015625 3.71875 C20.7339585 4.58272862 24.65257877 6.13609394 29 8 C31.77675097 8.48377541 31.77675097 8.48377541 34.375 8.5625 C36.9609375 8.69140625 36.9609375 8.69140625 39 9 C39.495 9.99 39.495 9.99 40 11 C38.02043559 10.85966889 36.04134859 10.7125877 34.0625 10.5625 C32.40927734 10.44068359 32.40927734 10.44068359 30.72265625 10.31640625 C28 10 28 10 27 9 C25.845 8.835 24.69 8.67 23.5 8.5 C20 8 20 8 19 7 C17.65252916 6.76924918 16.29622435 6.58846937 14.9375 6.4375 C13.638125 6.293125 12.33875 6.14875 11 6 C11 5.34 11 4.68 11 4 C9.02 4 7.04 4 5 4 C5 3.34 5 2.68 5 2 C3.35 1.67 1.7 1.34 0 1 C0 0.67 0 0.34 0 0 Z " fill="#626261" transform="translate(468,747)"/>
<path d="M0 0 C1.32 0.33 2.64 0.66 4 1 C3.34 1 2.68 1 2 1 C2 1.66 2 2.32 2 3 C-0.64 3 -3.28 3 -6 3 C-6 3.66 -6 4.32 -6 5 C-13.59 5 -21.18 5 -29 5 C-29 4.34 -29 3.68 -29 3 C-29.99 2.67 -30.98 2.34 -32 2 C-21.44 2 -10.88 2 0 2 C0 1.34 0 0.68 0 0 Z " fill="#5B5B5B" transform="translate(582,628)"/>
<path d="M0 0 C0.99 0.33 1.98 0.66 3 1 C2.25 2.9375 2.25 2.9375 1 5 C-1.125 5.75 -1.125 5.75 -3 6 C-3 6.66 -3 7.32 -3 8 C-6 10 -6 10 -9 10 C-9 10.66 -9 11.32 -9 12 C-9.99 11.67 -10.98 11.34 -12 11 C-12.33 10.34 -12.66 9.68 -13 9 C-11.71802734 8.15115234 -11.71802734 8.15115234 -10.41015625 7.28515625 C-9.2942305 6.54433159 -8.17834728 5.80344286 -7.0625 5.0625 C-6.49853516 4.68931641 -5.93457031 4.31613281 -5.35351562 3.93164062 C-2.53966389 2.14034283 -2.53966389 2.14034283 0 0 Z " fill="#151414" transform="translate(250,405)"/>
<path d="M0 0 C27.05741188 -0.24943012 27.05741188 -0.24943012 34 1 C34.66 1.66 35.32 2.32 36 3 C33.20826945 3.02690104 30.41679652 3.04679053 27.625 3.0625 C26.43390625 3.07506836 26.43390625 3.07506836 25.21875 3.08789062 C19.2265625 3.11328125 19.2265625 3.11328125 17 2 C14.12089412 1.76725791 11.25853505 1.58027243 8.375 1.4375 C7.57320312 1.39431641 6.77140625 1.35113281 5.9453125 1.30664062 C3.9637489 1.20048543 1.98189729 1.09973145 0 1 C0 0.67 0 0.34 0 0 Z " fill="#383838" transform="translate(642,474)"/>
<path d="M0 0 C1.97909398 -0.02686553 3.95828971 -0.04633375 5.9375 -0.0625 C7.03964844 -0.07410156 8.14179688 -0.08570313 9.27734375 -0.09765625 C12 0 12 0 13 1 C15.12329115 1.13457479 17.24897971 1.23179424 19.375 1.3125 C26.1791484 1.73078781 31.78342239 3.27231799 38 6 C36.0625 6.5625 36.0625 6.5625 34 7 C33.505 6.505 33.505 6.505 33 6 C31.67218122 5.79395915 30.33704105 5.6337041 29 5.5 C25.11111111 5.11111111 25.11111111 5.11111111 24 4 C21.85795689 3.79016721 19.71075887 3.63176615 17.5625 3.5 C11.22027534 3.11013767 11.22027534 3.11013767 9 2 C7.46331135 1.77532169 5.92031946 1.59203195 4.375 1.4375 C3.55773437 1.35371094 2.74046875 1.26992188 1.8984375 1.18359375 C1.27195312 1.12300781 0.64546875 1.06242187 0 1 C0 0.67 0 0.34 0 0 Z " fill="#505050" transform="translate(488,476)"/>
<path d="M0 0 C-1.65 0.66 -3.3 1.32 -5 2 C-5 2.66 -5 3.32 -5 4 C-9.95 5.485 -9.95 5.485 -15 7 C-15 7.66 -15 8.32 -15 9 C-16.64453125 10.54296875 -16.64453125 10.54296875 -18.8125 12.1875 C-19.52019531 12.73792969 -20.22789062 13.28835937 -20.95703125 13.85546875 C-21.63121094 14.23316406 -22.30539062 14.61085937 -23 15 C-23.99 14.67 -24.98 14.34 -26 14 C-23.73023018 12.20697179 -21.45923756 10.41553207 -19.1875 8.625 C-18.22360352 7.86316406 -18.22360352 7.86316406 -17.24023438 7.0859375 C-16.61826172 6.59609375 -15.99628906 6.10625 -15.35546875 5.6015625 C-14.49924927 4.92601318 -14.49924927 4.92601318 -13.62573242 4.23681641 C-9.90825082 1.40864974 -4.63980751 -2.31990376 0 0 Z " fill="#919292" transform="translate(563,215)"/>
<path d="M0 0 C2.31 0 4.62 0 7 0 C6.0409375 0.4640625 6.0409375 0.4640625 5.0625 0.9375 C3.06389179 1.8345163 3.06389179 1.8345163 2 3 C-0.95705321 3.08868299 -3.89065056 3.11520296 -6.84765625 3.09765625 C-8.17729652 3.09553383 -8.17729652 3.09553383 -9.53379822 3.09336853 C-12.37673254 3.08775215 -15.21958931 3.07519691 -18.0625 3.0625 C-19.98502491 3.05748711 -21.90755104 3.05292384 -23.83007812 3.04882812 C-28.55341549 3.03777741 -33.27669458 3.02050183 -38 3 C-38.33 2.34 -38.66 1.68 -39 1 C-19.695 1.495 -19.695 1.495 0 2 C0 1.34 0 0.68 0 0 Z " fill="#4D4D4D" transform="translate(680,584)"/>
<path d="M0 0 C0.66 0.33 1.32 0.66 2 1 C1.67 1.66 1.34 2.32 1 3 C0.01 3 -0.98 3 -2 3 C-2 3.66 -2 4.32 -2 5 C-3.6796875 6.18359375 -3.6796875 6.18359375 -5.875 7.4375 C-8.91130355 9.17330794 -9.99102668 9.98654002 -12 13 C-12.66 13 -13.32 13 -14 13 C-14 13.66 -14 14.32 -14 15 C-20.625 17 -20.625 17 -24 17 C-21.43416449 14.74206475 -19.75124931 13.93566793 -16.375 13.0625 C-12.97186012 12.39428181 -12.97186012 12.39428181 -11.875 10.1875 C-11.58625 9.465625 -11.2975 8.74375 -11 8 C-7.71654388 4.2605083 -4.63722169 1.85488867 0 0 Z " fill="#535352" transform="translate(559,194)"/>
<path d="M0 0 C1.27230469 0.00902344 2.54460937 0.01804687 3.85546875 0.02734375 C5.31919922 0.04474609 5.31919922 0.04474609 6.8125 0.0625 C6.8125 0.3925 6.8125 0.7225 6.8125 1.0625 C2.8525 1.0625 -1.1075 1.0625 -5.1875 1.0625 C-5.1875 1.7225 -5.1875 2.3825 -5.1875 3.0625 C-6.09371094 3.11148437 -6.99992187 3.16046875 -7.93359375 3.2109375 C-16.25281591 3.7096721 -16.25281591 3.7096721 -24.4375 5.1875 C-28.1875 6.0625 -28.1875 6.0625 -30.1875 5.0625 C-24.30245933 2.75207663 -18.88277847 1.6511064 -12.5703125 1.2734375 C-8.21160794 0.88758497 -4.50530645 -0.04133309 0 0 Z " fill="#494949" transform="translate(425.1875,477.9375)"/>
<path d="M0 0 C7.62604072 -0.1072412 15.20052076 -0.0171139 22.8125 0.4375 C23.86147461 0.49635376 23.86147461 0.49635376 24.93164062 0.55639648 C29.87685104 0.87685104 29.87685104 0.87685104 31 2 C32.68183948 2.23287008 34.3712416 2.41264166 36.0625 2.5625 C37.44115234 2.68818359 37.44115234 2.68818359 38.84765625 2.81640625 C39.91306641 2.90728516 39.91306641 2.90728516 41 3 C41 3.33 41 3.66 41 4 C38.85423363 4.02685938 36.70837355 4.04633088 34.5625 4.0625 C33.36753906 4.07410156 32.17257812 4.08570313 30.94140625 4.09765625 C28 4 28 4 27 3 C25.00383495 2.77118462 23.00045807 2.60468312 20.99609375 2.46484375 C19.78115234 2.37783203 18.56621094 2.29082031 17.31445312 2.20117188 C16.03505859 2.11416016 14.75566406 2.02714844 13.4375 1.9375 C11.51260742 1.80118164 11.51260742 1.80118164 9.54882812 1.66210938 C6.36614985 1.43731054 3.18323142 1.21680182 0 1 C0 0.67 0 0.34 0 0 Z " fill="#ABABAB" transform="translate(663,474)"/>
<path d="M0 0 C1.98 0 3.96 0 6 0 C5.44225728 3.23490776 4.62788492 4.97855006 2 7 C1.01 7 0.02 7 -1 7 C-1.33 7.99 -1.66 8.98 -2 10 C-3.39195915 5.82412255 -1.82323219 3.86525224 0 0 Z " fill="#DBDBDC" transform="translate(446,401)"/>
<path d="M0 0 C1.66842534 0.32441604 3.33480481 0.65939189 5 1 C6.0828125 1.185625 6.0828125 1.185625 7.1875 1.375 C9 2 9 2 11 5 C11.1953125 7.26171875 11.1953125 7.26171875 11.125 9.6875 C11.10695313 10.49574219 11.08890625 11.30398437 11.0703125 12.13671875 C11.03550781 13.05904297 11.03550781 13.05904297 11 14 C3.61538462 14.36923077 3.61538462 14.36923077 0.5 12.5 C0.005 12.005 -0.49 11.51 -1 11 C-0.67 10.34 -0.34 9.68 0 9 C0.804375 9.7115625 0.804375 9.7115625 1.625 10.4375 C4.42842836 12.28186076 6.69620258 12.62456847 10 13 C8.84814708 7.55487713 7.66990947 5.07530624 3 2 C2.01 1.34 1.02 0.68 0 0 Z " fill="#373737" transform="translate(450,241)"/>
<path d="M0 0 C3.91525603 -0.41243795 5.63411391 -0.23644075 8.9921875 1.93359375 C10.41917969 3.17302734 10.41917969 3.17302734 11.875 4.4375 C12.84179688 5.26121094 13.80859375 6.08492188 14.8046875 6.93359375 C15.52914062 7.61550781 16.25359375 8.29742187 17 9 C17 9.33 17 9.66 17 10 C13.625 10.125 13.625 10.125 10 10 C9.34 9.34 8.68 8.68 8 8 C8.66 7.67 9.32 7.34 10 7 C7.27521226 3.63408573 3.93143208 2.55773724 0 1 C0 0.67 0 0.34 0 0 Z " fill="#CCCCCC" transform="translate(725,474)"/>
<path d="M0 0 C0 0.33 0 0.66 0 1 C-2.97 1 -5.94 1 -9 1 C-9 1.66 -9 2.32 -9 3 C-10.28197266 3.09087891 -10.28197266 3.09087891 -11.58984375 3.18359375 C-13.24693359 3.30927734 -13.24693359 3.30927734 -14.9375 3.4375 C-16.03964844 3.51871094 -17.14179688 3.59992188 -18.27734375 3.68359375 C-20.91109903 3.70418084 -20.91109903 3.70418084 -22 5 C-23.68183948 5.23287008 -25.3712416 5.41264166 -27.0625 5.5625 C-27.98160156 5.64628906 -28.90070313 5.73007812 -29.84765625 5.81640625 C-30.55792969 5.87699219 -31.26820313 5.93757813 -32 6 C-31.67 5.34 -31.34 4.68 -31 4 C-29.1875 3.62109375 -29.1875 3.62109375 -27 3.4375 C-24.21067942 3.37334592 -24.21067942 3.37334592 -22 2 C-14.66932596 0.14704365 -7.52883257 -0.2621257 0 0 Z " fill="#B6B6B6" transform="translate(372,493)"/>
<path d="M0 0 C0.33 0 0.66 0 1 0 C1 7.59 1 15.18 1 23 C0.67 23 0.34 23 0 23 C-2.1583195 16.92972642 -2.20852314 11.40629424 -2 5 C-1.34 5 -0.68 5 0 5 C0 3.35 0 1.7 0 0 Z " fill="#363636" transform="translate(616,523)"/>
<path d="M0 0 C0.33 0 0.66 0 1 0 C1 2.97 1 5.94 1 9 C1.66 9 2.32 9 3 9 C3 12.3 3 15.6 3 19 C3.66 19 4.32 19 5 19 C5.33 22.63 5.66 26.26 6 30 C5.34 30 4.68 30 4 30 C3.90912109 29.04287109 3.90912109 29.04287109 3.81640625 28.06640625 C3.73261719 27.24011719 3.64882813 26.41382813 3.5625 25.5625 C3.44068359 24.32693359 3.44068359 24.32693359 3.31640625 23.06640625 C3.21069185 21.01337975 3.21069185 21.01337975 2 20 C1.68076508 17.9427083 1.48838648 15.88386479 1.28125 13.8125 C1.18001957 11.9832467 1.18001957 11.9832467 0 11 C-0.07226502 9.14712498 -0.0838122 7.29166122 -0.0625 5.4375 C-0.05347656 4.42558594 -0.04445313 3.41367187 -0.03515625 2.37109375 C-0.02355469 1.58863281 -0.01195312 0.80617188 0 0 Z " fill="#464646" transform="translate(692,532)"/>
<path d="M0 0 C0.66 0.33 1.32 0.66 2 1 C-1.61734287 6.1404346 -6.04050763 10.17410588 -11 14 C-11.66 13.67 -12.32 13.34 -13 13 C-8.66666667 8.66666667 -4.33333333 4.33333333 0 0 Z " fill="#E7E7E7" transform="translate(547,217)"/>
<path d="M0 0 C0.66 0.33 1.32 0.66 2 1 C1.67 2.65 1.34 4.3 1 6 C0.34 6 -0.32 6 -1 6 C-1.09152344 6.60328125 -1.18304687 7.2065625 -1.27734375 7.828125 C-2.17720492 10.53257263 -3.20702019 11.2082314 -5.5625 12.75 C-6.20316406 13.17796875 -6.84382812 13.6059375 -7.50390625 14.046875 C-8.24447266 14.51867187 -8.24447266 14.51867187 -9 15 C-9.66 14.67 -10.32 14.34 -11 14 C-10.50628906 13.51789063 -10.01257813 13.03578125 -9.50390625 12.5390625 C-8.86324219 11.90742188 -8.22257813 11.27578125 -7.5625 10.625 C-6.92441406 9.99851562 -6.28632812 9.37203125 -5.62890625 8.7265625 C-3.92117824 7.08276939 -3.92117824 7.08276939 -3 5 C-2.01 5 -1.02 5 0 5 C0 3.35 0 1.7 0 0 Z " fill="#606060" transform="translate(638,449)"/>
<path d="M0 0 C0.66 1.32 1.32 2.64 2 4 C2.99 4 3.98 4 5 4 C-0.91684902 11.84245077 -0.91684902 11.84245077 -5.4375 12.5 C-6.283125 12.335 -7.12875 12.17 -8 12 C-4.25 9 -4.25 9 -2 9 C-1.34 6.03 -0.68 3.06 0 0 Z " fill="#B4B4B4" transform="translate(729,314)"/>
<path d="M0 0 C0.99 0.33 1.98 0.66 3 1 C1.6875 3 1.6875 3 0 5 C-0.99 5 -1.98 5 -3 5 C-3 5.66 -3 6.32 -3 7 C-5.31 7 -7.62 7 -10 7 C-6.81516089 4.36113331 -3.7101179 1.85505895 0 0 Z " fill="#2D2D2D" transform="translate(368,238)"/>
<path d="M0 0 C0.99 0.33 1.98 0.66 3 1 C2.6875 2.9375 2.6875 2.9375 2 5 C1.01 5.33 0.02 5.66 -1 6 C-1.33 6.99 -1.66 7.98 -2 9 C-3.62890625 10.38671875 -3.62890625 10.38671875 -5.5625 11.6875 C-6.52349609 12.34298828 -6.52349609 12.34298828 -7.50390625 13.01171875 C-7.99761719 13.33785156 -8.49132812 13.66398437 -9 14 C-7.60701445 10.99868813 -5.96044932 8.48942591 -3.9375 5.875 C-1.76773805 3.06372737 -1.76773805 3.06372737 0 0 Z " fill="#2B2B2B" transform="translate(227,334)"/>
<path d="M0 0 C5.28 0.33 10.56 0.66 16 1 C16 1.66 16 2.32 16 3 C10.97560615 4.67479795 6.09914442 4.23615622 1 3 C0.67 2.01 0.34 1.02 0 0 Z " fill="#6A6A6A" transform="translate(242,390)"/>
<path d="M0 0 C3.56425699 1.31447775 6.59724634 2.88405795 9.75 5 C10.52859375 5.515625 11.3071875 6.03125 12.109375 6.5625 C14 8 14 8 15 10 C13.35 9.67 11.7 9.34 10 9 C10 8.34 10 7.68 10 7 C8.02 6.34 6.04 5.68 4 5 C4 4.34 4 3.68 4 3 C2.68 3 1.36 3 0 3 C0 2.01 0 1.02 0 0 Z " fill="#535353" transform="translate(434,240)"/>
<path d="M0 0 C0.33 0 0.66 0 1 0 C1.2295711 3.36704285 1.33943529 5.41370268 -0.375 8.375 C-0.91125 8.91125 -1.4475 9.4475 -2 10 C-2.66 10 -3.32 10 -4 10 C-4 10.66 -4 11.32 -4 12 C-4.66 11.67 -5.32 11.34 -6 11 C-5.67 10.01 -5.34 9.02 -5 8 C-4.34 8 -3.68 8 -3 8 C-2.690625 6.865625 -2.38125 5.73125 -2.0625 4.5625 C-1 1 -1 1 0 0 Z " fill="#454544" transform="translate(363,290)"/>
<path d="M0 0 C0.66 0.33 1.32 0.66 2 1 C2 1.99 2 2.98 2 4 C1.01 4 0.02 4 -1 4 C-1.33 4.66 -1.66 5.32 -2 6 C-4.31 5.67 -6.62 5.34 -9 5 C-6.06626269 3.04417512 -3.21783702 1.43775696 0 0 Z " fill="#1C1C16" transform="translate(379,233)"/>
<path d="M0 0 C0.66 0.33 1.32 0.66 2 1 C1.67 1.66 1.34 2.32 1 3 C3.31 2.01 5.62 1.02 8 0 C7 3 7 3 4.49609375 4.38671875 C3.48675781 4.81597656 2.47742188 5.24523437 1.4375 5.6875 C0.42558594 6.12449219 -0.58632813 6.56148437 -1.62890625 7.01171875 C-2.41136719 7.33785156 -3.19382812 7.66398438 -4 8 C-4 7.34 -4 6.68 -4 6 C-3.34 6 -2.68 6 -2 6 C-2 4.35 -2 2.7 -2 1 C-1.34 0.67 -0.68 0.34 0 0 Z " fill="#BFC0C0" transform="translate(564,207)"/>
<path d="M0 0 C1 2 1 2 0.44140625 4.1640625 C0.15136719 4.97617187 -0.13867188 5.78828125 -0.4375 6.625 C-0.72496094 7.44226563 -1.01242187 8.25953125 -1.30859375 9.1015625 C-1.65083984 10.04128906 -1.65083984 10.04128906 -2 11 C-2.66 11 -3.32 11 -4 11 C-4 11.66 -4 12.32 -4 13 C-4.66 12.67 -5.32 12.34 -6 12 C-5.67 11.01 -5.34 10.02 -5 9 C-4.34 9 -3.68 9 -3 9 C-2.87625 7.700625 -2.7525 6.40125 -2.625 5.0625 C-2.4140625 2.84765625 -2.4140625 2.84765625 -2 1 C-1.34 0.67 -0.68 0.34 0 0 Z " fill="#5D5D5D" transform="translate(421,403)"/>
<path d="M0 0 C0.66 0 1.32 0 2 0 C4.20914 3.31371 4.22481553 4.3446021 4.125 8.1875 C4.10695313 9.08855469 4.08890625 9.98960937 4.0703125 10.91796875 C4.03550781 11.94857422 4.03550781 11.94857422 4 13 C3.01 13.33 2.02 13.66 1 14 C1.01160156 13.32453125 1.02320313 12.6490625 1.03515625 11.953125 C1.04417969 11.06109375 1.05320312 10.1690625 1.0625 9.25 C1.07990234 7.92742187 1.07990234 7.92742187 1.09765625 6.578125 C1.00826198 4.2181162 0.66912821 2.25501476 0 0 Z " fill="#727372" transform="translate(423,382)"/>
<path d="M0 0 C3.25516428 3.16474305 6.32008793 6.32752791 9 10 C9 10.66 9 11.32 9 12 C8.01 12 7.02 12 6 12 C4.39453125 9.8828125 4.39453125 9.8828125 2.8125 7.125 C2.01779297 5.76761719 2.01779297 5.76761719 1.20703125 4.3828125 C0 2 0 2 0 0 Z " fill="#D8D8D9" transform="translate(639,341)"/>
<path d="M0 0 C0.99 0.33 1.98 0.66 3 1 C2.3125 2.9375 2.3125 2.9375 1 5 C-2.29427581 6.09809194 -3.66411172 6.11196276 -7 5 C-5.90554162 4.13342884 -4.79902219 3.28207276 -3.6875 2.4375 C-3.07261719 1.96183594 -2.45773438 1.48617188 -1.82421875 0.99609375 C-1.22222656 0.66738281 -0.62023437 0.33867187 0 0 Z " fill="#292929" transform="translate(250,405)"/>
<path d="M0 0 C0.99 0.33 1.98 0.66 3 1 C2.42415568 3.38564077 1.77772405 5.66682784 1 8 C-0.32 8 -1.64 8 -3 8 C-1.125 2.25 -1.125 2.25 0 0 Z " fill="#1A1A1A" transform="translate(274,332)"/>
<path d="M0 0 C0.66 0.33 1.32 0.66 2 1 C0.88333826 4.34998521 0.25305075 4.79340222 -2.5625 6.6875 C-3.20316406 7.12449219 -3.84382812 7.56148437 -4.50390625 8.01171875 C-4.99761719 8.33785156 -5.49132812 8.66398438 -6 9 C-6.66 8.67 -7.32 8.34 -8 8 C-3.375 2.25 -3.375 2.25 0 0 Z " fill="#F4F4F4" transform="translate(553,213)"/>
<path d="M0 0 C1.46726798 3.81489674 0.43336419 6.29011622 -1 10 C-1.99 10 -2.98 10 -4 10 C-4.33 11.32 -4.66 12.64 -5 14 C-5.33 13.34 -5.66 12.68 -6 12 C-5.29296875 10.1953125 -5.29296875 10.1953125 -4.1875 8.125 C-3.83042969 7.44695313 -3.47335937 6.76890625 -3.10546875 6.0703125 C-2.74066406 5.38710938 -2.37585938 4.70390625 -2 4 C-1.32965011 2.66851465 -0.66187054 1.33572063 0 0 Z " fill="#747474" transform="translate(526,553)"/>
<path d="M0 0 C0 0.33 0 0.66 0 1 C-1.65 1 -3.3 1 -5 1 C-5 4.63 -5 8.26 -5 12 C-5.33 12 -5.66 12 -6 12 C-7.42258812 8.17679443 -8.24042276 5.08718695 -8 1 C-5.29120665 -0.35439668 -2.99066732 -0.06501451 0 0 Z " fill="#414141" transform="translate(692,500)"/>
<path d="M0 0 C2.31 0 4.62 0 7 0 C6.360625 0.309375 5.72125 0.61875 5.0625 0.9375 C3.06389179 1.8345163 3.06389179 1.8345163 2 3 C-0.35313555 3.07271741 -2.70833668 3.08370868 -5.0625 3.0625 C-6.35285156 3.05347656 -7.64320313 3.04445313 -8.97265625 3.03515625 C-9.97167969 3.02355469 -10.97070312 3.01195312 -12 3 C-12 2.67 -12 2.34 -12 2 C-8.04 2 -4.08 2 0 2 C0 1.34 0 0.68 0 0 Z " fill="#3A3A3A" transform="translate(680,584)"/>
<path d="M0 0 C0 0.99 0 1.98 0 3 C-3.3 2.67 -6.6 2.34 -10 2 C-6.70021068 -0.19985954 -3.76967739 -1.88483869 0 0 Z " fill="#282828" transform="translate(572,172)"/>
<path d="M0 0 C2.08268593 -0.08126087 4.16628658 -0.13930839 6.25 -0.1875 C7.99023438 -0.23970703 7.99023438 -0.23970703 9.765625 -0.29296875 C13.22268407 0.02017066 14.51565563 0.65709108 17 3 C15.02 3 13.04 3 11 3 C11 2.34 11 1.68 11 1 C7.37 1.33 3.74 1.66 0 2 C0 1.34 0 0.68 0 0 Z " fill="#484848" transform="translate(470,506)"/>
<path d="M0 0 C3.33889745 1.5889512 5.61284971 3.11895655 8 6 C8.75 8.75 8.75 8.75 9 11 C8.34 11 7.68 11 7 11 C5.71993203 9.21601386 4.52339649 7.37146094 3.375 5.5 C2.42753906 3.96859375 2.42753906 3.96859375 1.4609375 2.40625 C0.97882812 1.6121875 0.49671875 0.818125 0 0 Z " fill="#3F3F3F" transform="translate(731,359)"/>
<path d="M0 0 C-1.65 0.66 -3.3 1.32 -5 2 C-5 2.66 -5 3.32 -5 4 C-6.65 4.33 -8.3 4.66 -10 5 C-10.33 4.01 -10.66 3.02 -11 2 C-9.54494642 1.47007308 -8.08581873 0.9513211 -6.625 0.4375 C-5.81289063 0.14746094 -5.00078125 -0.14257812 -4.1640625 -0.44140625 C-2 -1 -2 -1 0 0 Z " fill="#808080" transform="translate(563,215)"/>
<path d="M0 0 C-0.33 0.99 -0.66 1.98 -1 3 C-1.66 3 -2.32 3 -3 3 C-3.33 3.66 -3.66 4.32 -4 5 C-6.97 4.505 -6.97 4.505 -10 4 C-7.02096266 1.02096266 -4.19714671 0 0 0 Z " fill="#2A2A2A" transform="translate(554,176)"/>
<path d="M0 0 C0.33 1.32 0.66 2.64 1 4 C1.66 4 2.32 4 3 4 C3 8.29 3 12.58 3 17 C2.67 17 2.34 17 2 17 C1.90912109 15.93458984 1.90912109 15.93458984 1.81640625 14.84765625 C1.73261719 13.92855469 1.64882813 13.00945312 1.5625 12.0625 C1.48128906 11.14597656 1.40007813 10.22945313 1.31640625 9.28515625 C1.23955024 7.03840268 1.23955024 7.03840268 0 6 C-0.04080783 4.00041636 -0.04254356 1.99954746 0 0 Z " fill="#474747" transform="translate(680,250)"/>
<path d="M0 0 C-0.33 0.99 -0.66 1.98 -1 3 C-2.65 3 -4.3 3 -6 3 C-6 2.34 -6 1.68 -6 1 C-6.66 0.67 -7.32 0.34 -8 0 C-4.94736336 -0.98120464 -3.05263664 -0.98120464 0 0 Z " fill="#232322" transform="translate(406,226)"/>
<path d="M0 0 C0.99 0.495 0.99 0.495 2 1 C2 2.65 2 4.3 2 6 C2.66 6 3.32 6 4 6 C4 8.97 4 11.94 4 15 C3.67 15 3.34 15 3 15 C2.49733206 12.87562952 1.9979439 10.75048274 1.5 8.625 C1.2215625 7.44164062 0.943125 6.25828125 0.65625 5.0390625 C0 2 0 2 0 0 Z " fill="#535353" transform="translate(683,448)"/>
<path d="M0 0 C1.32 0 2.64 0 4 0 C4 1.65 4 3.3 4 5 C4.66 5 5.32 5 6 5 C6 7.64 6 10.28 6 13 C5.67 13 5.34 13 5 13 C5 10.69 5 8.38 5 6 C4.34 6 3.68 6 3 6 C2.01 4.02 1.02 2.04 0 0 Z " fill="#404040" transform="translate(675,427)"/>
<path d="M0 0 C0.66 0 1.32 0 2 0 C2 0.99 2 1.98 2 3 C1.34 3 0.68 3 0 3 C0 3.66 0 4.32 0 5 C-0.66 5 -1.32 5 -2 5 C-2 6.32 -2 7.64 -2 9 C-2.99 9 -3.98 9 -5 9 C-4.34 7.35 -3.68 5.7 -3 4 C-2.34 4 -1.68 4 -1 4 C-0.67 2.68 -0.34 1.36 0 0 Z " fill="#484848" transform="translate(355,302)"/>
<path d="M0 0 C0.66 0.66 1.32 1.32 2 2 C-2.455 2.495 -2.455 2.495 -7 3 C-6.67 2.01 -6.34 1.02 -6 0 C-3 -1 -3 -1 0 0 Z " fill="#202020" transform="translate(584,170)"/>
<path d="M0 0 C7.75 1.875 7.75 1.875 10 3 C9.67 3.66 9.34 4.32 9 5 C6.03 4.505 6.03 4.505 3 4 C3 3.34 3 2.68 3 2 C2.01 1.67 1.02 1.34 0 1 C0 0.67 0 0.34 0 0 Z " fill="#5F5F5F" transform="translate(526,483)"/>
<path d="M0 0 C-0.33 1.65 -0.66 3.3 -1 5 C-1.33 4.34 -1.66 3.68 -2 3 C-3.98 3.33 -5.96 3.66 -8 4 C-5.29881977 1.17603885 -4.05589853 0 0 0 Z " fill="#4A4A4A" transform="translate(253,310)"/>
<path d="M0 0 C3.02419525 0.58803797 6.01758453 1.22678118 9 2 C9.33 3.65 9.66 5.3 10 7 C9.52949219 6.66226563 9.05898438 6.32453125 8.57421875 5.9765625 C7.95160156 5.53054687 7.32898438 5.08453125 6.6875 4.625 C6.07261719 4.18414062 5.45773437 3.74328125 4.82421875 3.2890625 C3.2347608 2.16589093 1.61937829 1.07958553 0 0 Z " fill="#545454" transform="translate(450,241)"/>
<path d="M0 0 C0 3.52032428 -0.70351351 4.4385343 -3 7 C-3.66 7 -4.32 7 -5 7 C-5.33 6.01 -5.66 5.02 -6 4 C-4.625 2.5 -4.625 2.5 -3 1 C-2.34 1 -1.68 1 -1 1 C-0.67 0.67 -0.34 0.34 0 0 Z " fill="#161616" transform="translate(492,216)"/>
<path d="M0 0 C0.66 0 1.32 0 2 0 C1.43628586 3.26954202 0.50037734 4.82575883 -2 7 C-2.66 6.67 -3.32 6.34 -4 6 C-2.7260411 3.96166576 -1.38938077 1.96147874 0 0 Z " fill="#989898" transform="translate(450,401)"/>
<path d="M0 0 C0.33 0.66 0.66 1.32 1 2 C1.66 2 2.32 2 3 2 C3 2.99 3 3.98 3 5 C1.35 5.66 -0.3 6.32 -2 7 C-1.125 2.25 -1.125 2.25 0 0 Z " fill="#252525" transform="translate(268,346)"/>
<path d="M0 0 C0 0.99 0 1.98 0 3 C-1.96466413 4.06775224 -3.96855359 5.06553465 -6 6 C-6.66 5.67 -7.32 5.34 -8 5 C-7.01 4.67 -6.02 4.34 -5 4 C-5 3.34 -5 2.68 -5 2 C-2 0 -2 0 0 0 Z " fill="#323232" transform="translate(553,220)"/>
<path d="M0 0 C4.54805635 -0.17835515 7.8794254 0.00214565 12 2 C12 2.33 12 2.66 12 3 C7.53160785 3.21278058 4.17737474 2.59138085 0 1 C0 0.67 0 0.34 0 0 Z " fill="#5C5C5C" transform="translate(614,182)"/>
<path d="M0 0 C0.66 1.32 1.32 2.64 2 4 C-1.75 7 -1.75 7 -4 7 C-2.79618552 4.50638429 -1.54571278 2.31856917 0 0 Z " fill="#282929" transform="translate(626,445)"/>
<path d="M0 0 C0.33 0.99 0.66 1.98 1 3 C0.34 3 -0.32 3 -1 3 C-1 3.66 -1 4.32 -1 5 C-2.65 5 -4.3 5 -6 5 C-3.375 1.125 -3.375 1.125 0 0 Z " fill="#222222" transform="translate(288,314)"/>
<path d="M0 0 C1.2065625 0.0309375 1.2065625 0.0309375 2.4375 0.0625 C0.08472731 2.78676311 -2.18746331 3.8766763 -5.5625 5.0625 C-3.15007962 0.07683121 -3.15007962 0.07683121 0 0 Z " fill="#EFEFF0" transform="translate(569.5625,205.9375)"/>
<path d="M0 0 C1 3 1 3 -0.25 5.6875 C-0.8275 6.450625 -1.405 7.21375 -2 8 C-2.99 8 -3.98 8 -5 8 C-3.62845496 5.04590299 -2.01136276 2.55991624 0 0 Z " fill="#919191" transform="translate(457,455)"/>
<path d="M0 0 C1.65 0.99 3.3 1.98 5 3 C4.34 3.66 3.68 4.32 3 5 C2.01 5 1.02 5 0 5 C-0.5625 3.0625 -0.5625 3.0625 -1 1 C-0.67 0.67 -0.34 0.34 0 0 Z " fill="#1C1C1C" transform="translate(257,344)"/>
<path d="M0 0 C0.33 0 0.66 0 1 0 C1.36923077 7.38461538 1.36923077 7.38461538 -0.5 10.5 C-0.995 10.995 -1.49 11.49 -2 12 C-2 10.02 -2 8.04 -2 6 C-1.34 6 -0.68 6 0 6 C0 4.02 0 2.04 0 0 Z " fill="#AEAEAE" transform="translate(665,286)"/>
<path d="M0 0 C0.66 0 1.32 0 2 0 C1.75 1.875 1.75 1.875 1 4 C-1.0625 5.25 -1.0625 5.25 -3 6 C-2.42655063 3.13275314 -2.1385485 2.1385485 0 0 Z " fill="#444343" transform="translate(525,219)"/>
<path d="" fill="#FFFFFF" transform="translate(0,0)"/>
<path d="" fill="#FFFFFF" transform="translate(0,0)"/>
<path d="" fill="#FFFFFF" transform="translate(0,0)"/>
</svg>
